<?xml version="1.0" standalone="no"?>
<!DOCTYPE svg PUBLIC "-//W3C//DTD SVG 1.1//EN" "http://www.w3.org/Graphics/SVG/1.1/DTD/svg11.dtd" >
<svg xmlns="http://www.w3.org/2000/svg" xmlns:xlink="http://www.w3.org/1999/xlink" version="1.1">
<metadata></metadata>
<defs>
<font id="fs_melight_italic" horiz-adv-x="1150" >
<font-face units-per-em="2048" ascent="1536" descent="-512" />
<missing-glyph horiz-adv-x="501" />
<glyph horiz-adv-x="0" />
<glyph unicode="&#xd;" horiz-adv-x="682" />
<glyph unicode=" "  horiz-adv-x="501" />
<glyph unicode="&#x09;" horiz-adv-x="501" />
<glyph unicode="&#xa0;" horiz-adv-x="501" />
<glyph unicode="!" horiz-adv-x="616" d="M125 70q0 49 32.5 89t86.5 40q39 0 66.5 -28t27.5 -69q0 -47 -36 -84.5t-89 -37.5q-37 0 -62.5 25.5t-25.5 64.5zM223 418l107 1032q2 25 73 25h29q45 0 60.5 -6.5t13.5 -18.5l-180 -1032q-2 -14 -43 -15h-21q-39 1 -39 15z" />
<glyph unicode="&#x22;" horiz-adv-x="860" d="M211 934l53 520q2 20 64 21h26q35 0 45.5 -4.5t8.5 -16.5l-91 -520q-2 -14 -47 -14h-14q-20 0 -30.5 2t-13.5 4t-1 8zM563 934l53 520q2 20 62 21h27q37 0 47 -4.5t8 -16.5l-90 -520q-2 -14 -49 -14h-15q-18 0 -28.5 2t-13.5 4t-1 8z" />
<glyph unicode="#" d="M29 477l2 12q4 23 8 28t14 5h195l158 441h-199q-16 0 -12 34l2 15q2 23 6 27.5t16 4.5h215l141 410q8 20 41 21h25q23 0 29 -4.5t2 -16.5l-142 -410h316l141 410q8 20 41 21h23q23 0 28.5 -4.5t1.5 -16.5l-141 -410h199q8 0 11 -2t3 -10t-2 -22l-2 -15q-4 -33 -23 -32 h-215l-153 -441h215q12 0 15 -5t-1 -30l-2 -12q-6 -35 -24 -35h-234l-143 -420q-10 -20 -43 -20h-23q-23 0 -28 4t-1 16l144 420h-316l-143 -420q-10 -20 -41 -20h-27q-23 0 -27.5 4t-0.5 16l143 420h-180q-16 0 -12 37zM346 522h316l155 441h-315z" />
<glyph unicode="$" d="M84 114.5q2 10.5 22 37.5l11 14q31 41 47 33q141 -102 305 -103q141 0 258 85t117 229q0 49 -18.5 89t-65.5 78.5t-76 57t-100 59.5q-16 10 -25 15q-135 76 -209 162.5t-74 215.5q0 172 127 282t316 124l22 172q2 16 50 16h6q29 0 39 -3t8 -13l-25 -176q150 -23 242 -94 q10 -10 7 -18.5t-21 -35.5l-9 -10q-27 -43 -45 -33q-131 80 -258 80q-131 0 -225 -75.5t-94 -206.5q0 -47 18.5 -87t59.5 -76t73.5 -58.5t94.5 -57.5q80 -43 119.5 -69.5t96 -74.5t81 -106.5t24.5 -130.5q0 -180 -128 -303t-325 -149l-24 -168q-2 -16 -53 -17h-7 q-29 0 -37 3t-6 14l25 166q-221 10 -336 114q-10 8 -8 18.5z" />
<glyph unicode="%" horiz-adv-x="1777" d="M152 971q0 125 38.5 239.5t133 199.5t229.5 85q127 0 197.5 -77t70.5 -226q0 -125 -39 -239.5t-134 -200.5t-230 -86q-127 0 -196.5 77.5t-69.5 227.5zM281 981q0 -217 157 -217q90 0 150.5 73.5t82 163t21.5 181.5q0 217 -155 217q-90 0 -150.5 -73t-83 -163t-22.5 -182 zM392 -31q-7 6 3 21l899 1497q14 23 60 22h18q33 0 41 -5t-2 -21l-903 -1497q-14 -23 -59 -23h-19q-31 0 -38 6zM983 285q0 125 39 239.5t133 199.5t229 85q127 0 198 -77t71 -226q0 -125 -39 -239.5t-134.5 -200.5t-230.5 -86q-127 0 -196.5 77.5t-69.5 227.5zM1112 295 q0 -217 158 -217q90 0 150.5 73.5t82 162.5t21.5 182q0 217 -156 217q-90 0 -150.5 -73t-83 -163t-22.5 -182z" />
<glyph unicode="&#x26;" horiz-adv-x="1406" d="M66 328q0 154 90 281.5t241 205.5q-70 117 -69 242q0 197 128 316.5t332 119.5q133 0 250 -55q14 -6 -6 -52l-8 -20q-16 -39 -37 -31q-104 43 -221 43q-131 0 -215 -83t-84 -226q0 -98 53 -188t207 -256l238 -258q137 182 217 438q6 18 53 18h6q33 0 43 -4t6 -14 q-88 -303 -254 -516l201 -211q14 -14 -23 -51l-22 -23q-37 -37 -55 -18l-191 202q-215 -209 -475 -208q-193 0 -299 96t-106 252zM209 352q0 -121 79 -189.5t210 -68.5q205 0 379 170l-271 289q-98 104 -153 180q-106 -57 -175 -159.5t-69 -221.5z" />
<glyph unicode="'" horiz-adv-x="505" d="M211 934l53 520q2 20 62 21h26q35 0 45.5 -4.5t8.5 -16.5l-91 -520q-2 -14 -47 -14h-14q-20 0 -29.5 2t-12.5 4t-1 8z" />
<glyph unicode="(" horiz-adv-x="661" d="M174 418q0 301 111.5 601t320.5 535q14 14 45 -6l19 -14q31 -20 16 -39q-186 -233 -283.5 -515t-97.5 -566q0 -352 141 -631q8 -16 -28 -39l-23 -14q-37 -20 -45 -6q-176 334 -176 694z" />
<glyph unicode=")" horiz-adv-x="661" d="M-10 -217q186 233 283.5 515t97.5 566q0 352 -142 631q-8 16 29 39l23 14q37 20 45 6q176 -334 176 -694q0 -301 -111.5 -601t-320.5 -535q-14 -14 -45 6l-19 14q-30 21 -16 39z" />
<glyph unicode="*" horiz-adv-x="804" d="M145 1202q-18 4 0 45l11 23q18 41 39 33l227 -97l14 271q2 18 41 18h21q27 0 35 -4t6 -14l-58 -271l252 97q12 4 17.5 -1.5t11.5 -31.5l6 -23q10 -39 -16 -45l-260 -47l116 -223q6 -14 -35 -37l-18 -10q-37 -20 -43 -6l-74 239l-147 -239q-6 -12 -41 6l-19 10 q-37 20 -20 37l184 223z" />
<glyph unicode="+" d="M96 743l2 11q8 41 21 41h428l63 438q2 16 45 16h7q27 0 37 -3t8 -13l-64 -438h430q12 0 14.5 -8.5t-4.5 -34.5l-2 -11q-6 -29 -10 -36t-14 -7h-426l-62 -440q-2 -16 -49 -16h-6q-27 0 -35 3t-6 13l62 440h-429q-20 0 -10 45z" />
<glyph unicode="," horiz-adv-x="483" d="M2 -307q164 143 164 250q0 37 -35 84t-35 82q0 47 32 77.5t83 30.5q53 0 83 -31.5t30 -91.5q0 -117 -80 -239.5t-205 -216.5q-10 -8 -29 14l-6 8q-14 23 -2 33z" />
<glyph unicode="-" horiz-adv-x="765" d="M111 621l2 10q6 31 9 38t13 7h524q10 0 12.5 -7t-3.5 -40l-2 -11q-8 -47 -23 -47h-524q-18 1 -8 50z" />
<glyph unicode="." horiz-adv-x="485" d="M96 82q0 53 39 94t92 41q41 0 71 -29.5t30 -74.5q0 -53 -39 -93t-94 -40q-41 0 -70 29.5t-29 72.5z" />
<glyph unicode="/" horiz-adv-x="671" d="M-37 -8l647 1497q10 23 68 22h8q39 0 50.5 -6t2.5 -20l-651 -1497q-10 -23 -68 -23h-8q-37 0 -46 5.5t-3 21.5z" />
<glyph unicode="0" d="M88 483q0 119 16.5 244t60.5 266.5t111.5 250t180 180t254.5 71.5q182 0 281.5 -124t99.5 -374q0 -117 -16.5 -242.5t-61.5 -268t-112.5 -252t-181.5 -182t-255 -72.5q-182 0 -279.5 125.5t-97.5 377.5zM231 492q0 -393 252 -394q129 0 225.5 95.5t145.5 242t71.5 285.5 t22.5 264q0 391 -254 391q-104 0 -188 -64.5t-134 -161.5t-83 -222t-45.5 -232.5t-12.5 -203.5z" />
<glyph unicode="1" horiz-adv-x="1153" d="M213 7q-2 7 2 40l2 14q6 49 27 50h235l170 1214l-342 -195q-20 -10 -37 29l-8 19q-10 25 -10 33t12 16l391 223q45 25 86 25h27q23 0 32 -3.5t7 -11.5l-189 -1349h216q10 0 12 -7.5t-2 -42.5l-2 -14q-4 -31 -9.5 -39t-15.5 -8h-590q-12 0 -14 7z" />
<glyph unicode="2" d="M78 49l2 12q8 43 31 66l340 350q80 84 107.5 112.5t102 118t106.5 145.5t63.5 139t31.5 157q0 111 -65.5 169t-173.5 58q-150 0 -314 -90q-23 -14 -41 31l-6 14q-16 39 4 51q188 113 381 113q158 0 255 -86t97 -238q0 -61 -17 -124.5t-34.5 -111.5t-64.5 -116.5 t-69.5 -101.5t-91.5 -107.5t-86.5 -93t-92.5 -96.5l-299 -301h620q10 0 12.5 -7.5t-2.5 -43.5l-2 -17q-6 -51 -24 -51h-758q-20 0 -12 49z" />
<glyph unicode="3" horiz-adv-x="1153" d="M68 47q-16 10 6 55l6 13q14 31 23.5 37t25.5 0q123 -53 256 -54q190 0 295 90q113 92 113 273q0 92 -58 153q-98 106 -315 107h-41q-12 0 -14.5 8t2.5 39l2 12q6 49 24 49h33q205 0 311 93q104 94 105 235q0 80 -43 135q-61 86 -203 86q-125 0 -274 -61q-18 -6 -24.5 -1 t-14.5 30l-7 20q-12 37 7 47q158 82 335 82q197 0 297 -119q63 -80 64 -196q0 -139 -87 -252t-224 -154q111 -25 187.5 -101.5t76.5 -203.5q0 -221 -150.5 -355t-386.5 -134q-196 -1 -327 67z" />
<glyph unicode="4" d="M57 426l4 29q8 57 39 104l539 897q10 18 63 19h15q59 0 59 -13q0 -4 -4 -10l-567 -940h493l52 352q2 18 59 19h14q37 0 50.5 -4.5t11.5 -14.5l-51 -352h192q12 0 14 -8t-4 -47l-2 -13q-6 -35 -10 -42t-14 -7h-193l-53 -377q-2 -18 -66 -18h-14q-35 0 -46 4t-9 14l53 377 h-586q-25 0 -33 6.5t-6 24.5z" />
<glyph unicode="5" d="M92 43q-23 10 2 51l12 21q12 20 15.5 24t12.5 10.5t18 -2.5q119 -49 243 -49q184 0 291 90q68 57 104.5 150.5t36.5 191.5q0 104 -53 170q-78 98 -266 99q-127 0 -264 -37l100 713h692q10 0 11.5 -8.5t-3.5 -43.5l-2 -16q-6 -51 -22 -51h-557l-66 -463q70 16 152 16 q223 0 334 -129q82 -94 82 -241q0 -236 -155 -397.5t-415 -161.5q-86 0 -174 20t-129 43z" />
<glyph unicode="6" d="M119 438q0 135 27.5 278.5t86 284t141.5 250t203.5 177t260.5 67.5q135 0 231 -51q14 -8 -6 -49l-10 -21q-12 -25 -21.5 -30t-23.5 2q-88 35 -187 34q-184 0 -311 -161.5t-201 -415.5q172 109 346 108q178 0 270.5 -99t92.5 -265q0 -233 -139.5 -400t-372.5 -167 q-197 0 -292 119.5t-95 338.5zM264 451q0 -180 62.5 -268.5t197.5 -88.5q160 0 257.5 129t97.5 303q0 272 -256 273q-154 0 -340 -111q-19 -116 -19 -237z" />
<glyph unicode="7" d="M244 14q0 4 4 13l733 1329h-700q-18 0 -11 53l2 16q4 33 9.5 41.5t15.5 8.5h786q27 0 36 -4.5t7 -14.5l-10 -63q-4 -35 -29 -80l-702 -1290q-14 -23 -72 -23h-16q-53 0 -53 14z" />
<glyph unicode="8" d="M76 315q0 158 107.5 282t273.5 185q-106 68 -156.5 136.5t-50.5 168.5q0 172 134 290t323 118q150 0 249 -84t99 -219q0 -238 -346 -397q70 -37 111.5 -63.5t89.5 -70t71 -95.5t23 -115q0 -201 -156 -336t-377 -135q-174 0 -285.5 87.5t-109.5 247.5zM215 336 q0 -117 76 -179.5t203 -62.5q150 0 261 91t111 237q0 70 -49 130t-92 86t-147 79q-18 10 -27 14q-137 -49 -236.5 -152.5t-99.5 -242.5zM389 1102q0 -84 55.5 -138.5t169.5 -119.5q121 53 212.5 138t91.5 200q0 88 -63.5 144t-168.5 56q-115 0 -206 -78.5t-91 -201.5z" />
<glyph unicode="9" d="M102 43q-14 10 7 51l10 21q12 27 18 32t23 -4q102 -49 215 -49q154 0 260 94q152 133 233 484q-170 -109 -346 -109q-178 0 -271 102.5t-93 268.5q0 225 139 393t369 168q195 0 293 -126t98 -347q0 -248 -86 -508t-252 -405q-152 -129 -350 -129q-161 0 -267 63zM299 942 q0 -266 256 -266q154 0 340 110q18 129 18 230q0 365 -264 364q-162 0 -256 -131t-94 -307z" />
<glyph unicode=":" horiz-adv-x="483" d="M68 82q0 53 37.5 93t93.5 40q41 0 69.5 -28.5t28.5 -73.5q0 -55 -38 -94t-93 -39q-41 0 -69.5 29.5t-28.5 72.5zM180 883q0 53 38 93t93 40q41 0 70 -29t29 -74q0 -55 -38 -94t-93 -39q-41 0 -70 30t-29 73z" />
<glyph unicode=";" horiz-adv-x="481" d="M-10 -307q164 143 164 250q0 37 -35 84t-35 82q0 47 31.5 77.5t83.5 30.5q53 0 82.5 -31.5t29.5 -91.5q0 -117 -79.5 -239.5t-204.5 -216.5q-10 -8 -29 14l-6 8q-14 23 -2 33zM193 883q0 53 37.5 93t93.5 40q41 0 69.5 -29t28.5 -74q0 -55 -38 -94t-93 -39 q-41 0 -69.5 30t-28.5 73z" />
<glyph unicode="&#x3c;" d="M98 750l2 16q4 41 27 51l973 514q12 6 18 2t17 -28l6 -15q16 -37 0 -47l-920 -485l783 -486q16 -8 -13 -47l-10 -14q-16 -25 -23.5 -29t-19.5 2l-829 514q-15 11 -11 52z" />
<glyph unicode="=" d="M68 535l2 10q8 41 20 41h954q12 0 14.5 -8.5t-3.5 -34.5l-2 -11q-6 -29 -10.5 -36t-14.5 -7h-950q-20 1 -10 46zM125 950l2 11q8 41 20 40h955q12 0 14 -7t-4 -36l-2 -10q-6 -29 -10 -36t-15 -7h-950q-20 0 -10 45z" />
<glyph unicode="&#x3e;" d="M41 225q-16 37 0 47l920 486l-783 485q-16 8 12 47l11 15q18 25 23 28.5t20 -2.5l829 -514q14 -10 10 -51l-2 -16q-4 -41 -26 -52l-973 -514q-12 -6 -18.5 -2t-16.5 29z" />
<glyph unicode="?" horiz-adv-x="841" d="M145 68q0 49 33 89t86 40q39 0 66.5 -28t27.5 -69q0 -47 -35.5 -85t-89.5 -38q-37 0 -62.5 26t-25.5 65zM170 1396q2 7 16 15q164 82 330 82q197 0 289 -109q70 -72 69 -192q0 -225 -256 -383q-135 -84 -182 -134t-61 -153l-15 -102q-2 -20 -61 -21h-20q-35 0 -44.5 5.5 t-7.5 19.5l17 111q16 115 74.5 189.5t207.5 168.5q104 66 153.5 125t49.5 153q0 70 -41 125q-57 76 -196 76q-125 0 -273 -65q-14 -6 -21.5 1t-15.5 33l-6 21q-8 27 -6 34z" />
<glyph unicode="@" horiz-adv-x="1650" d="M74 557q0 393 273.5 665.5t672.5 272.5q270 0 438 -143.5t168 -390.5q0 -98 -27.5 -204t-81 -202t-145.5 -158.5t-209 -62.5q-84 0 -136 44t-56 114q-47 -72 -121 -115t-152 -43q-111 0 -169 66.5t-58 174.5q0 190 136 358.5t331 168.5q113 0 182 -76l21 47q6 14 53 14 h20q29 0 38.5 -4t7.5 -12l-146 -418q-27 -74 -27 -131q0 -90 101 -90q102 0 178 92t106.5 204t30.5 214q0 209 -136 325.5t-368 116.5q-328 0 -562 -247.5t-234 -585.5q0 -227 137 -348t385 -121q160 0 332 49q12 2 16 -4t6 -27l2 -22q4 -37 -12 -41q-174 -57 -381 -57 q-285 0 -449.5 153.5t-164.5 423.5zM600 575q0 -143 131 -143q80 0 150 64q80 72 127 211l75 225q-57 78 -155 78q-141 0 -234.5 -141.5t-93.5 -293.5z" />
<glyph unicode="A" horiz-adv-x="1257" d="M-36 13q0 4 1 10l682 1425q8 16 22.5 21.5t61.5 5.5h12q80 0 84 -27l293 -1425q1 -4 1 -7q0 -9 -9 -12q-12 -4 -55 -4h-21q-68 0 -69 20l-72 377h-619l-174 -377q-10 -20 -73 -20h-11q-27 0 -40 3q-14 3 -14 10zM330 512h544l-151 834z" />
<glyph unicode="B" horiz-adv-x="1134" d="M74 0l207 1475h323q270 0 373 -117q67 -73 67 -190q0 -134 -74.5 -242.5t-201.5 -155.5q115 -27 185.5 -106.5t70.5 -202.5q0 -184 -143 -322q-154 -139 -457 -139h-350zM229 115h195q231 0 344 92q111 86 111 254q0 88 -48 145q-88 100 -313 101h-205zM328 813h166 q205 0 305 90q102 92 102 242q0 90 -51 141q-72 74 -264 74h-180z" />
<glyph unicode="C" horiz-adv-x="1130" d="M94 553q0 131 26.5 262t86 254t142.5 217t207 151.5t269 57.5q182 0 322 -90q7 -5 7 -12t-17 -37l-15 -27q-14 -25 -21 -30t-18 1q-141 74 -266 74q-150 0 -265.5 -75.5t-181 -200.5t-98 -264.5t-32.5 -284.5q0 -449 393 -449q154 0 295 68q12 6 19 -3t11 -36l5 -20 q8 -43 -9 -52q-160 -77 -361 -77h-5q-240 0 -367 153.5t-127 419.5z" />
<glyph unicode="D" horiz-adv-x="1296" d="M74 0l207 1475h325q193 0 315.5 -47.5t200.5 -145.5q106 -137 107 -373q0 -483 -277 -741q-98 -90 -229 -129t-322 -39h-327zM229 115h177q160 0 261 30.5t185 104.5q231 203 231 651q0 205 -94 320q-61 74 -155.5 106.5t-255.5 32.5h-172z" />
<glyph unicode="E" horiz-adv-x="1071" d="M74 0l207 1475h774q12 0 15 -10q1 -3 1 -9q0 -12 -4 -35l-2 -12q-6 -33 -11 -42t-16 -9h-635l-77 -553h538q23 0 13 -53l-3 -13q-6 -33 -11 -42t-15 -9h-539l-80 -571h643q23 0 13 -54l-2 -12q-6 -33 -11.5 -42t-15.5 -9h-782z" />
<glyph unicode="F" horiz-adv-x="958" d="M76 23l203 1452h720q15 0 15 -13q0 -11 -4 -37l-2 -12q-6 -37 -10.5 -46t-14.5 -9h-584l-77 -553h487q12 0 14 -7t-4 -42l-2 -13q-6 -37 -10 -46t-14 -9h-488l-92 -665q-2 -23 -68 -23h-10q-39 0 -50 5.5t-9 17.5z" />
<glyph unicode="G" horiz-adv-x="1275" d="M94 563q0 178 46 341t134 297t234.5 214t331.5 80q223 0 368 -115q4 -3 4 -10q0 -14 -16 -41l-8 -14q-29 -45 -43 -35q-150 94 -322 94q-150 0 -265.5 -71.5t-182 -192.5t-100 -260t-33.5 -291q0 -219 101 -340t314 -121q154 0 289 56l70 497h-328q-18 0 -8 56l2 10 q6 35 10 43t15 8h460l-96 -690q-221 -98 -438 -98q-279 0 -416 165q-123 150 -123 418z" />
<glyph unicode="H" horiz-adv-x="1314" d="M76 18l203 1438q2 18 59 19h16q41 0 53.5 -3.5t10.5 -15.5l-92 -651h708l92 651q2 18 60 19h16q41 0 53.5 -3.5t10.5 -15.5l-203 -1438q-2 -18 -66 -18h-16q-35 0 -47 4t-10 14l94 670h-709l-94 -670q-2 -18 -68 -18h-16q-33 0 -45 4t-10 14z" />
<glyph unicode="I" horiz-adv-x="731" d="M41 19q0 10 4 26l2 10q6 31 9 36t14 5h151l180 1282h-153q-18 0 -8 45l2 11q6 29 9 35t13 6h438q6 0 9.5 -2.5t3.5 -12.5t-4 -30l-2 -11q-6 -31 -9.5 -36t-13.5 -5h-147l-181 -1282h152q6 0 9 -2t3 -12t-4 -31l-2 -10q-6 -31 -9 -36t-13 -5h-441q-12 0 -12 19z" />
<glyph unicode="J" horiz-adv-x="878" d="M-30 81q0 5 20 38l12 20q14 25 23.5 30t23.5 -3q113 -68 221 -68q131 0 205 78q61 63 88 256l144 1024q2 18 61 19h16q37 0 50.5 -4.5t11.5 -14.5l-148 -1057q-31 -217 -137 -317q-109 -102 -291 -102q-160 0 -288 86q-11 9 -12 15z" />
<glyph unicode="K" horiz-adv-x="1144" d="M76 18l203 1438q2 18 59 19h16q33 0 48.5 -4.5t13.5 -14.5l-105 -749l244 229q313 295 455 522q10 16 67 17h27q31 0 41 -5q6 -3 6 -8q0 -3 -2 -8q-135 -246 -514 -594l373 -833q6 -16 -3.5 -21.5t-46.5 -5.5h-32q-63 0 -72 20l-328 740l-239 -221l-74 -521 q-2 -18 -66 -18h-16q-33 0 -45 4t-10 14z" />
<glyph unicode="L" horiz-adv-x="989" d="M76 23l200 1433q2 18 60 19h16q37 0 50.5 -4.5t11.5 -14.5l-189 -1339h596q15 0 15 -14q0 -12 -5 -40l-2 -12q-8 -51 -24 -51h-678q-31 0 -42 5.5t-9 17.5z" />
<glyph unicode="M" horiz-adv-x="1558" d="M45 10v4l272 1440q2 20 76 21h17q72 0 77 -21l269 -1057l549 1057q12 20 86 21h16q45 0 59.5 -4.5t12.5 -16.5l-142 -1440q-2 -14 -59 -14h-16h-20q-9 0 -15 1t-10.5 2t-7.5 2t-4 2t-1 3v4l133 1284l-530 -1017q-10 -16 -68 -17h-18q-57 0 -62 17l-260 1001l-225 -1268 q-2 -14 -61 -14h-13h-20q-8 0 -14.5 1t-10.5 2t-6 2t-3 2t-1 3z" />
<glyph unicode="N" horiz-adv-x="1357" d="M72 18l202 1438q2 18 74 19h12q68 0 78 -21l574 -1259l176 1261q2 18 57 19h12q33 0 45.5 -4.5t10.5 -14.5l-203 -1438q-2 -18 -72 -18h-12q-47 0 -60.5 4t-17.5 16l-573 1260l-178 -1262q-2 -18 -60 -18h-12q-33 0 -44 4t-9 14z" />
<glyph unicode="O" horiz-adv-x="1390" d="M94 547q0 137 28 270t87 257t144 217t210 148.5t275 55.5q227 0 359 -140.5t132 -410.5q0 -141 -27.5 -276.5t-87 -261t-145.5 -220t-211 -150.5t-272 -56q-227 0 -359.5 146.5t-132.5 420.5zM242 547q0 -446 366 -447q145 0 260 77t180.5 200t99.5 261t34 277 q0 227 -93.5 343t-273.5 116q-147 0 -262 -77.5t-180.5 -202.5t-98 -265.5t-32.5 -281.5z" />
<glyph unicode="P" horiz-adv-x="1052" d="M76 18l205 1457h297q309 0 423 -134q74 -88 74 -229q0 -262 -172 -418q-135 -123 -385 -123q-111 0 -221 19l-82 -572q-2 -18 -68 -18h-14q-37 0 -48 4t-9 14zM311 702q102 -16 205 -16q190 0 293 90q119 104 119 318q0 111 -49 170q-43 53 -118 74.5t-204 21.5h-151z " />
<glyph unicode="Q" horiz-adv-x="1390" d="M94 547q0 137 28 270t87 257t144 217t210 148.5t275 55.5q227 0 359 -140.5t132 -410.5t-101.5 -508.5t-293.5 -359.5h2q55 -104 145 -207q12 -14 -22 -45q-2 -2 -4 -2l-23 -19q-21 -18 -34 -18q-8 0 -13 6q-96 117 -160 229q-108 -40 -233 -40h-6q-227 0 -359.5 146.5 t-132.5 420.5zM242 547q0 -446 366 -447q84 0 164 29q-55 117 -72 211q-2 14 5.5 20.5t31.5 16.5l21 8q31 12 39 10t12 -16q23 -92 70 -195q150 104 226.5 310t76.5 421q0 227 -93.5 343t-273.5 116q-147 0 -262 -77.5t-180.5 -202.5t-98 -265.5t-32.5 -281.5z" />
<glyph unicode="R" horiz-adv-x="1112" d="M76 18l205 1457h305q322 0 432 -132q67 -77 67 -211q0 -233 -151 -374q-82 -76 -232 -111q115 -391 252 -620q12 -20 -24 -25q-12 -2 -35 -2h-21q-39 0 -53 4t-22 19q-137 246 -234 604q-23 -2 -63 -2h-201l-86 -607q-2 -18 -65 -18h-17q-33 0 -46 4t-11 14zM317 735h193 q199 0 305 86q121 98 121 293q0 119 -51 172q-70 76 -305 76h-174z" />
<glyph unicode="S" horiz-adv-x="1030" d="M17 109q0 16 22 47l8 10q20 27 28.5 34t18.5 -1q145 -102 305 -103q172 0 273.5 81t101.5 233q0 25 -4 46t-16 42l-22 36q-9 15 -31.5 33.5t-34 29.5t-41 29.5t-42 27t-48 28.5t-46.5 27q-137 82 -208.5 163.5t-73.5 208.5q0 178 130 296t331 118q193 0 323 -100 q6 -4 6 -12q0 -15 -20 -42l-6 -10q-29 -43 -47 -33q-131 80 -267 80q-133 0 -222 -77.5t-89 -210.5q0 -47 18.5 -87t59.5 -75t72.5 -55.5t95.5 -55.5q84 -47 120 -70.5t94 -72.5t82.5 -106.5t24.5 -129.5q0 -209 -142 -333.5t-370 -124.5h-4q-214 0 -374 116q-5 5 -6 13z " />
<glyph unicode="T" horiz-adv-x="1036" d="M138 1382q0 13 3 31l2 12q6 33 10.5 41.5t14.5 8.5h934q14 0 13 -25q0 -12 -3 -31l-2 -12q-6 -35 -10 -42t-15 -7h-391l-188 -1340q-2 -18 -66 -18h-16q-35 0 -46 4t-9 14l188 1340h-405q-14 0 -14 24z" />
<glyph unicode="U" horiz-adv-x="1343" d="M125 383q0 80 12 162l127 911q2 18 64 19h14q39 0 51.5 -4.5t9.5 -14.5l-124 -893q-12 -102 -13 -145q0 -147 62 -221q86 -98 270 -99q186 0 293 101q119 106 156 364l124 893q2 18 64 19h12q37 0 50.5 -4.5t11.5 -14.5l-127 -909q-41 -297 -201 -434 q-156 -133 -399 -133q-252 0 -367 131q-90 102 -90 272z" />
<glyph unicode="V" horiz-adv-x="1191" d="M155 1456q0 10 8 13q11 5 52 6h23q59 0 65 -23l232 -1315l589 1317q10 20 64 21h24q25 0 38.5 -3.5t15.5 -7.5q1 -2 1 -5t-1 -7l-648 -1423q-12 -29 -94 -29h-14q-51 0 -67.5 5t-18.5 24l-268 1419q-1 4 -1 8z" />
<glyph unicode="W" horiz-adv-x="1916" d="M174 1448q-2 16 8.5 21.5t50.5 5.5h23q63 0 66 -23l159 -1315l529 1317q8 20 59 21h27q53 0 55 -21l160 -1319l526 1319q8 20 66 21h20q16 0 26.5 -1t16.5 -3.5t9 -4.5t3 -6t-2 -8l-587 -1423q-8 -18 -27 -23.5t-68 -5.5h-10q-53 0 -72.5 5t-21.5 24l-146 1181 l-483 -1181q-8 -18 -26.5 -23.5t-67.5 -5.5h-10q-51 0 -67.5 5t-18.5 24z" />
<glyph unicode="X" horiz-adv-x="1103" d="M-45 14q-2 6 6 17l533 753l-287 662q-4 10 -2 16t16.5 9.5t44.5 3.5h25q57 0 65 -19l240 -555l395 553q16 20 74 21h14q58 0 58 -17q0 -6 -7 -14l-481 -676l326 -739q4 -10 1 -16.5t-17.5 -9.5t-45.5 -3h-22q-59 0 -68 18l-274 637l-451 -635q-18 -20 -84 -20h-8 q-51 0 -51 14z" />
<glyph unicode="Y" horiz-adv-x="1050" d="M142 1457.5q0 3.5 1 5.5q2 5 17.5 8.5t44.5 3.5h16q66 0 72 -23l242 -756l456 760q12 18 74 19h18q53 0 56 -15q0 -4 -4 -10l-555 -881l-78 -551q-2 -18 -66 -18h-16q-35 0 -46.5 4t-8.5 14l77 551l-299 881q-1 4 -1 7.5z" />
<glyph unicode="Z" horiz-adv-x="1081" d="M2 23l4 38q6 47 51 109l871 1188h-684q-18 0 -11 53l3 12q6 37 10 44.5t14 7.5h801q29 0 37 -4.5t6 -18.5l-4 -29q-8 -49 -53 -108l-875 -1198h741q6 0 9.5 -3t3.5 -15.5t-4 -37.5l-2 -12q-8 -49 -23 -49h-860q-23 0 -30 5.5t-5 17.5z" />
<glyph unicode="[" horiz-adv-x="663" d="M96 -270l256 1812h377q10 0 12 -6t-2 -39l-2 -18q-2 -29 -7 -36t-17 -7h-248l-225 -1600h247q8 0 10.5 -2t3.5 -12t-1 -31l-2 -18q-2 -27 -7.5 -35t-17.5 -8h-377z" />
<glyph unicode="\" horiz-adv-x="671" d="M170 1485q-2 16 8 21t51 5h9q57 0 61 -22l231 -1497q2 -16 -8 -21.5t-51 -5.5h-8q-39 0 -50.5 5t-13.5 18z" />
<glyph unicode="]" horiz-adv-x="663" d="M-63.5 -264q-2.5 6 2.5 39l2 18q2 29 7 36t17 7h248l225 1600h-248q-8 0 -10 2t-3 12t1 31l2 18q2 27 7.5 35t17.5 8h377l-256 -1812h-377q-10 0 -12.5 6z" />
<glyph unicode="^" d="M133 696q0 2 4 11l463 768q12 20 66 20h8q53 0 61 -20l250 -768q4 -12 -6 -17.5t-47 -5.5h-19q-55 0 -61 18l-197 666l-389 -666q-12 -18 -65 -18h-19q-49 0 -49 12z" />
<glyph unicode="_" horiz-adv-x="1011" d="M-66 -385l3 10q6 39 20 39h987q10 0 11 -6t-5 -33l-2 -10q-6 -29 -10 -36t-14 -7h-979q-21 0 -11 43z" />
<glyph unicode="`" horiz-adv-x="708" d="M289 1456q-8 16 16 19q12 2 33 2h31q57 0 65 -21l101 -242q4 -10 -19 -12q-10 -2 -24 -2h-9q-43 0 -51 12z" />
<glyph unicode="a" horiz-adv-x="1130" d="M82 403q0 166 59.5 322t189.5 266.5t304 110.5q193 0 274 -150l27 109q4 12 12 16t39 4h14q33 0 41 -5q7 -4 7 -14q0 -56 -8.5 -114.5t-21.5 -116t-15 -75.5l-43 -299q-31 -211 -48 -441q-2 -16 -53 -16h-6q-51 0 -51 18l2 127q-120 -165 -331 -165h-3q-197 0 -293 116.5 t-96 306.5zM225 416q0 -315 262 -316q141 0 228 82q51 49 76.5 114.5t46.5 207.5l43 307q-82 168 -256 168q-131 0 -225.5 -92t-134.5 -216t-40 -255z" />
<glyph unicode="b" horiz-adv-x="1118" d="M70 72l204 1466q2 18 60 18h16q35 0 46.5 -4t9.5 -14l-82 -582q133 145 329 146q190 0 278.5 -116t88.5 -298q0 -186 -64.5 -344t-205 -261t-332.5 -103q-184 0 -328 57q-22 10 -20 35zM209 135q94 -37 221 -37q223 0 336 167t113 415q0 299 -250 299q-145 0 -242 -92 q-68 -68 -90 -172q-25 -115 -47 -293z" />
<glyph unicode="c" horiz-adv-x="966" d="M82 414q0 166 62.5 319.5t197.5 261t315 107.5q172 0 301 -92q6 -4 6 -13q0 -15 -18 -45l-10 -16q-20 -35 -37 -35q-6 0 -12 4q-111 72 -236 72q-135 0 -235.5 -85t-145.5 -209t-45 -263q0 -147 67.5 -233.5t213.5 -86.5q150 0 272 62q16 6 20.5 1t12.5 -34l6 -25 q10 -39 -8 -49q-139 -75 -319 -75h-5q-201 0 -302 118.5t-101 315.5z" />
<glyph unicode="d" horiz-adv-x="1169" d="M76 399q0 170 61.5 327t195.5 266.5t316 109.5q158 0 254 -86l74 522q2 18 57 18h17q35 0 47 -4t10 -14l-184 -1302q-6 -39 -6 -66q0 -43 15 -55.5t56 -12.5q8 0 10 -6t-2 -35l-2 -16q-4 -37 -18 -41q-29 -8 -68 -8q-57 0 -90 38q-29 34 -29 84q0 6 1 13 q-105 -151 -333 -151h-3q-182 0 -280.5 111t-98.5 308zM217 410q0 -154 70.5 -232t199.5 -78q143 0 234 84q45 41 66.5 104.5t41.5 211.5l56 381q-100 96 -242 96q-135 0 -234.5 -85t-145.5 -211t-46 -271z" />
<glyph unicode="e" horiz-adv-x="1087" d="M82 414q0 100 22.5 198.5t69.5 186.5t113.5 155.5t160 107.5t201.5 40q252 0 326 -221q33 -92 33 -207q0 -68 -9 -125q-6 -33 -13 -42t-23 -9h-734q-4 -53 -4 -78q0 -158 76 -234q76 -82 240 -82q145 0 288 64q12 4 18.5 -1t14.5 -34l6 -20q12 -43 -4 -52 q-157 -82 -358 -82q0 1 -2 1q-202 0 -312 116.5t-110 317.5zM246 604h624q4 49 4 80q0 129 -59 211t-184 82q-291 0 -385 -373z" />
<glyph unicode="f" horiz-adv-x="663" d="M68 -457l196 1424h-141q-16 0 -8 53l2 14q4 33 8 40t14 7h142l12 84q33 221 132 329t284 108q94 0 180 -35q9 -4 9 -16q0 -14 -11 -38l-6 -14q-14 -33 -20.5 -39t-20.5 -2q-70 25 -142 25q-131 0 -191.5 -78t-82.5 -244l-12 -80h245q12 0 14.5 -8t-1.5 -43l-2 -14 q-6 -49 -27 -49h-246l-196 -1424q-2 -20 -62 -20h-16q-33 0 -44 5t-9 15z" />
<glyph unicode="g" horiz-adv-x="1126" d="M100 -434q0 14 13 43l6 12q16 35 22 41t21 0q98 -43 233 -43q143 0 230.5 64.5t134.5 199.5q33 96 51 252q-147 -135 -352 -135q-176 0 -266.5 112t-90.5 302q0 170 60.5 323.5t190.5 259t300 105.5q203 0 271 -137l16 98q2 18 57 18h9q39 0 49 -4q9 -3 8 -11 q0 -72 -10 -156t-29 -197t-27 -166l-49 -357q-37 -268 -92 -397q-129 -295 -469 -295q-160 0 -281 56q-7 3 -6 12zM244 418q0 -295 268 -295q176 0 317 147l43 312q16 125 17 153q0 72 -15 109q-20 59 -82.5 97t-148.5 38q-182 0 -290.5 -167t-108.5 -394z" />
<glyph unicode="h" horiz-adv-x="1163" d="M70 23l213 1515q2 18 57 18h16q33 0 46.5 -4t11.5 -14l-84 -602q137 166 370 166q184 0 273 -107q59 -74 59 -211q0 -51 -10 -133l-88 -628q-4 -23 -62 -23h-16q-33 0 -44 5t-9 18l76 536q18 147 18 195q0 86 -35 139q-53 78 -213 78q-156 0 -262 -101q-59 -59 -82 -147 q-8 -35 -47 -297l-57 -403q-4 -23 -62 -23h-16q-33 0 -44 5.5t-9 17.5z" />
<glyph unicode="i" horiz-adv-x="456" d="M80 20l147 1043q2 18 58 18h16q35 0 46 -4t9 -14l-147 -1043q-2 -20 -57 -20h-17q-35 0 -46 5t-9 15zM240 1442q0 45 36.5 84t85.5 39q37 0 64 -29t27 -70q0 -47 -36 -83.5t-85 -36.5q-39 0 -65.5 27.5t-26.5 68.5z" />
<glyph unicode="j" horiz-adv-x="493" d="M-302 -465q0 13 9 37l4 12q10 33 15.5 39t13.5 4q53 -16 96 -16q129 0 194.5 76.5t94.5 277.5l154 1098q2 18 59 18h16q35 0 46.5 -4t9.5 -14l-154 -1094q-37 -258 -135 -364.5t-289 -106.5q-74 0 -127 23q-7 3 -7 14zM293 1442q0 45 37 84t86 39q37 0 63.5 -29t26.5 -70 q0 -47 -36 -83.5t-85 -36.5q-39 0 -65.5 27.5t-26.5 68.5z" />
<glyph unicode="k" horiz-adv-x="960" d="M70 18l213 1520q2 18 57 18h18q33 0 45.5 -4t10.5 -14l-133 -946l131 102q207 160 385 367q18 20 73 20h11q55 0 57 -10q0 -4 -6 -12q-160 -199 -397 -397l290 -633q8 -18 -4 -23.5t-53 -5.5h-12q-43 0 -55.5 4t-18.5 19l-256 555l-166 -129l-61 -431q-2 -18 -60 -18h-16 q-35 0 -45 4t-8 14z" />
<glyph unicode="l" horiz-adv-x="491" d="M74 135q0 49 12 135l102 719q45 330 68 549q2 18 57 18h17q35 0 47 -4q11 -4 10 -11q0 -25 -3 -62.5t-11 -99.5t-15.5 -113.5t-22 -153t-24.5 -170.5l-98 -713q-6 -37 -6 -63q0 -61 55 -62q20 0 45 5q8 2 11.5 -5.5t3.5 -31.5v-15q0 -37 -19 -43q-43 -14 -90 -14 q-139 0 -139 135z" />
<glyph unicode="m" horiz-adv-x="1855" d="M86 18l109 775q23 154 34 270q2 12 11.5 15t42.5 3h16q37 0 47 -3t8 -15l-12 -125q137 164 363 164q176 0 260 -107q33 -43 47 -92q147 199 391 199q188 0 272 -107q61 -74 62 -207q0 -59 -13 -137l-88 -633q-2 -18 -57 -18h-16q-29 0 -43.5 4t-12.5 14l76 541 q18 143 19 193q0 102 -33 147q-53 72 -207 72q-168 0 -266 -113q-43 -49 -66 -135q-16 -68 -26 -148l-78 -557q-2 -18 -58 -18h-16q-29 0 -43 4t-12 14l75 541q18 143 19 193q0 90 -37 141q-51 78 -203 78q-168 0 -266 -113q-43 -49 -66 -135q-18 -74 -47 -297l-57 -408 q-2 -18 -57 -18h-17q-29 0 -43 4t-12 14z" />
<glyph unicode="n" horiz-adv-x="1165" d="M84 23l109 770q20 135 34 270q2 18 58 18h14q31 0 42 -4t9 -14l-12 -131q141 170 377 170q184 0 272 -107q59 -75 59 -216q0 -58 -10 -128l-88 -628q-2 -23 -61 -23h-17q-35 0 -45 5t-8 18l76 536q19 119 19 195v7q0 85 -35 132q-57 78 -213 78q-154 0 -265 -101 q-59 -63 -80 -147q-18 -74 -47 -297l-57 -403q-2 -23 -61 -23h-17q-35 0 -45 5.5t-8 17.5z" />
<glyph unicode="o" horiz-adv-x="1134" d="M82 406q0 129 37 249.5t106.5 222t184 163t258.5 61.5q186 0 280 -101q104 -111 105 -325q0 -174 -61.5 -328.5t-198 -261t-324.5 -106.5t-283 100q-104 111 -104 326zM223 416q0 -315 269 -316q199 0 309 174.5t110 391.5q0 315 -266 315q-137 0 -236.5 -90t-142.5 -215 t-43 -260z" />
<glyph unicode="p" horiz-adv-x="1124" d="M29 -459l215 1522q2 18 53 18h16q35 0 45.5 -3t8.5 -15l-9 -102q125 141 334 141q176 0 271.5 -103.5t95.5 -306.5q0 -133 -34 -257t-99.5 -227.5t-175 -165.5t-248.5 -62q-172 0 -266 98l-76 -537q-2 -18 -64 -18h-16q-33 0 -43 4t-8 14zM254 209q41 -47 111.5 -78 t148.5 -31q135 0 229.5 92.5t134.5 219.5t40 272q0 295 -261 295q-156 0 -243 -92q-39 -43 -64.5 -112.5t-48.5 -231.5z" />
<glyph unicode="q" horiz-adv-x="1124" d="M96 391.5q0 188.5 67.5 346t214 261t345.5 103.5q160 0 305 -60q29 -12 25 -38l-125 -891q-51 -358 -70 -574q-2 -16 -63 -16h-13q-33 0 -45 3t-10 13q25 276 76 619q-121 -178 -350 -178q-176 0 -266.5 111.5t-90.5 300zM240 395q0 -295 249 -295q127 0 232 93 q55 49 87 138t58 287l45 324q-96 43 -204 43q-150 0 -259.5 -88t-158.5 -218t-49 -284z" />
<glyph unicode="r" horiz-adv-x="696" d="M84 18l100 713q27 184 43 336q2 14 60 14h10q27 0 39 -2t15 -6t1 -10l-26 -234q59 125 150 195t183 70q39 0 58 -7q8 -4 8 -26q0 -11 -2 -27l-2 -16q-14 -51 -25 -53q-152 0 -264 -123q-100 -109 -133 -277q-20 -86 -51 -317l-33 -230q-2 -18 -63 -18h-13q-37 0 -47 4 t-8 14z" />
<glyph unicode="s" horiz-adv-x="901" d="M32 84q0 14 19 43l8 12q24 38 41 38q5 0 9 -3q121 -84 262 -84q119 0 202.5 56.5t83.5 172.5q0 76 -54 110t-185 67q-162 43 -219 102q-59 59 -60 164q0 152 114 246t279 94q193 0 310 -107q5 -4 5 -11q0 -15 -22 -42l-10 -12q-33 -41 -51 -25q-106 82 -248 82 q-98 0 -171 -52t-73 -157q0 -31 12.5 -55.5t27 -38.5t48 -28.5t57 -21.5t70.5 -20q154 -41 223.5 -96t69.5 -168q0 -168 -117.5 -269t-300.5 -101q-192 0 -327 96q-3 3 -3 8z" />
<glyph unicode="t" horiz-adv-x="731" d="M109 999q0 10 2 25l2 14q6 43 20 43h139l43 305q2 12 56 13h14q39 0 50 -2t9 -11l-43 -305h285q8 0 8 -20q0 -10 -2 -25l-2 -14q-6 -43 -20 -43h-283l-92 -657q-12 -80 -12 -123t20 -66q35 -39 119 -39q86 0 156 25q12 4 16 -1t8 -36l2 -14q4 -43 -10 -50 q-96 -38 -203 -38h-6q-129 0 -188 63q-35 39 -42 101q-2 19 -3 42q0 51 12 121l94 672h-141q-8 0 -8 20z" />
<glyph unicode="u" horiz-adv-x="1159" d="M116 294q0 61 11 136l88 631q2 20 57 20h17q35 0 47 -5t10 -15l-76 -541q-23 -153 -23 -211q0 -59 29 -123q59 -80 211 -80q147 0 246 87q98 92 135 358l72 510q2 20 59 20h15q35 0 47 -5t10 -15l-100 -711q-29 -217 -39 -325q-2 -16 -11.5 -20.5t-41.5 -4.5h-17 q-33 0 -41 3t-6 17l8 142q-127 -182 -368 -182q-203 0 -283 104q-56 70 -56 210z" />
<glyph unicode="v" horiz-adv-x="989" d="M109 1055q0 14 10 20t47 6h24q57 0 62 -22l182 -950q258 489 434 950q8 22 54 22h4h24q37 0 49 -6q8 -4 9 -12q0 -4 -2 -8q-209 -516 -496 -1024q-12 -20 -24.5 -25.5t-59.5 -5.5h-16q-45 0 -59.5 7t-20.5 28z" />
<glyph unicode="w" horiz-adv-x="1581" d="M123 1055q-2 16 10 21t53 5h17q39 0 49 -4t12 -20l121 -948l371 950q8 22 74 22h6h24q76 0 78 -20l131 -952q227 481 379 948q4 16 14.5 20t48.5 4h17q18 0 29.5 -1t17.5 -3q8 -3 7 -7q0 -3 -1 -7q-213 -592 -430 -1020q-23 -43 -98 -43h-17q-76 0 -80 35l-65 481 q-27 195 -53 445q-106 -291 -170 -447l-195 -473q-18 -41 -94 -41h-17q-72 0 -79 35z" />
<glyph unicode="x" horiz-adv-x="995" d="M2 14q0 4 4 9l424 540l-237 492q-10 20 22 24q16 2 45 2h12q68 0 76 -18l176 -389l285 389q14 18 74 18h14q61 0 61 -12q0 -6 -8 -14l-366 -477l270 -547q8 -14 -7.5 -22.5t-49.5 -8.5h-19q-70 0 -80 27l-211 436l-337 -447q-14 -16 -80 -16h-11q-57 0 -57 14z" />
<glyph unicode="y" horiz-adv-x="1021" d="M-141 -460q0 13 14 38l10 19q25 43 39 36q43 -16 96 -16q123 0 213.5 82t180.5 272l-262 1086q-2 10 1 14t17 7t47 3h14q66 0 70 -20l117 -520q41 -188 82 -424q96 209 192 409l258 535q10 20 68 20h10q55 0 55 -12q0 -4 -2 -8l-538 -1104q-113 -229 -222 -334 q-129 -123 -311 -123q-78 0 -141 27q-8 4 -8 13z" />
<glyph unicode="z" horiz-adv-x="911" d="M13 24q-1 8 1 19l2 12q6 37 21 56l663 856h-518q-10 0 -12 8t4 45l2 12q6 35 9 42t14 7h663q12 0 15 -6q1 -3 1 -11t-1 -22l-3 -14q-8 -41 -24 -63l-664 -850h570q10 0 11 -7.5t-3 -44.5l-2 -14q-6 -49 -23 -49h-712q-14 0 -14 24z" />
<glyph unicode="{" horiz-adv-x="661" d="M111 627l2 20q4 45 22 47q80 10 123 65.5t61 184.5l41 293q23 156 115 230.5t234 74.5h32q12 0 15.5 -7t1.5 -38l-2 -18q-2 -29 -6.5 -36t-16.5 -7h-28q-98 0 -149.5 -48.5t-68.5 -164.5l-41 -291q-18 -123 -63 -191.5t-133 -107.5q121 -51 121 -197q0 -25 -9 -94 l-40 -293q-6 -43 -7 -72q0 -80 38 -110.5t126 -30.5h29q14 0 10 -47l-2 -16q-4 -43 -22 -43h-41q-266 0 -267 233q0 41 7 86l38 279q10 82 11 100q0 74 -29 106.5t-94 43.5q-12 2 -8 49z" />
<glyph unicode="|" horiz-adv-x="552" d="M61 -539l310 2192q2 20 53 20h16q33 0 43.5 -4t8.5 -16l-310 -2192q-2 -20 -55 -20h-16q-33 0 -42.5 4t-7.5 16z" />
<glyph unicode="}" horiz-adv-x="661" d="M-82 -225l2 18q2 29 6 36t17 7h28q98 0 149.5 48t67.5 165l41 291q18 123 63.5 191.5t133.5 107.5q-121 51 -121 197q0 25 8 94l41 293q6 43 6 71q0 80 -37.5 111t-125.5 31h-29q-14 0 -10 47l2 16q4 43 22 43h41q266 0 266 -233q0 -39 -6 -86l-39 -279q-10 -82 -10 -100 q0 -74 29 -106.5t94 -43.5q12 -2 8 -49l-2 -20q-4 -45 -22 -47q-80 -10 -123 -65.5t-62 -184.5l-41 -293q-23 -156 -114.5 -230.5t-233.5 -74.5h-33q-12 0 -15 7t-1 38z" />
<glyph unicode="~" d="M35 684q109 260 336 260q72 0 137 -30.5t107 -67.5t100.5 -67.5t118.5 -30.5q80 0 133 43t96 131q6 16 43 4l14 -4q23 -6 29 -11.5t2 -15.5q-49 -127 -136 -193.5t-200 -66.5q-72 0 -137.5 30.5t-106.5 67.5t-99 67.5t-120 30.5q-147 0 -227 -174q-6 -16 -47 -4l-15 4 q-20 4 -26 10.5t-2 16.5z" />
<glyph unicode="&#xa1;" horiz-adv-x="616" d="M127 -369l180 1033q2 14 43 14h21q39 0 39 -14l-107 -1033q-2 -14 -15.5 -19t-58.5 -5h-28q-78 -1 -74 24zM295 979q0 47 36 85t89 38q37 0 62.5 -25.5t25.5 -64.5q0 -49 -33 -89t-86 -40q-39 0 -66.5 27.5t-27.5 68.5z" />
<glyph unicode="&#xa2;" d="M182 649q0 227 138.5 409.5t375.5 215.5l29 205q2 16 47 16h6q31 0 41 -3t8 -13l-28 -205q150 -10 258 -94q10 -6 9 -16.5t-22 -37.5l-10 -14q-31 -45 -51 -27q-98 74 -244 74q-184 0 -298.5 -145.5t-114.5 -356.5q0 -324 284 -323q143 0 275 63q14 6 19 0t14 -32l6 -19 q10 -27 9 -34t-13 -15q-131 -74 -291 -82l-29 -199q-2 -16 -51 -16h-6q-31 0 -39 3t-6 13l28 201q-174 18 -259 137t-85 295z" />
<glyph unicode="&#xa3;" horiz-adv-x="1153" d="M80 55l2 13q8 47 22 59q104 70 153.5 156t68.5 215l30 221h-180q-16 0 -8 45l2 12q4 31 7 37t13 6h181l28 209q33 238 146.5 361.5t328.5 123.5q152 0 267 -71q14 -10 -11 -51l-12 -21q-20 -37 -45 -24q-94 53 -207 53q-279 0 -327 -367l-29 -213h391q10 0 11 -6t-3 -39 l-2 -12q-6 -43 -20 -43h-391l-29 -201q-25 -162 -69 -245t-140 -152h711q12 0 6 -53l-2 -15q-6 -53 -21 -53h-862q-20 0 -10 55z" />
<glyph unicode="&#xa4;" d="M84 176q-2 4 4 12l178 242q-53 82 -53 203q0 119 41 231.5t119 188.5l-105 229q-8 20 23 23q14 2 39 2q66 0 76 -25l69 -158q78 39 170 39q102 0 176 -45l119 164q18 25 82 25q63 -2 63 -13q2 -4 -4 -12l-180 -242q55 -80 55 -202q0 -119 -41 -231.5t-118 -188.5 l104 -230q8 -20 -22 -22q-14 -2 -39 -2q-66 0 -76 24l-72 156q-74 -37 -168 -37q-106 0 -176 43l-119 -162q-18 -25 -82 -24q-63 2 -63 12zM338 647q0 -102 47 -166.5t147 -64.5q139 0 219 127t80 280q0 102 -47 167t-147 65q-139 0 -219 -127t-80 -281z" />
<glyph unicode="&#xa5;" d="M172 434l2 15q6 41 21 40h292l11 80l-35 107h-244q-12 0 -6 49l2 14q6 41 21 41h194l-211 670q-2 8 1 13t17.5 8.5t43.5 3.5h16q41 0 54.5 -4.5t17.5 -18.5l229 -756l438 760q12 18 64 19h18q55 0 56 -17q0 -4 -5 -8l-407 -670h196q12 0 7 -49l-2 -14q-6 -41 -19 -41 h-244l-65 -107l-10 -80h293q12 0 6 -49l-2 -14q-6 -41 -21 -41h-291l-53 -367q-2 -18 -65 -18h-17q-31 0 -44 4t-11 14l53 367h-295q-12 0 -6 49z" />
<glyph unicode="&#xa6;" horiz-adv-x="552" d="M78 -434l108 782q2 20 54 21h16q31 0 42 -5.5t9 -15.5l-108 -782q-2 -20 -58 -21h-16q-31 0 -40 4.5t-7 16.5zM246 768l110 782q2 20 52 21h16q35 0 45 -4t8 -17l-110 -782q-2 -20 -56 -20h-16q-31 0 -41 5t-8 15z" />
<glyph unicode="&#xa7;" horiz-adv-x="1005" d="M68 10q-10 8 14 45l10 15q27 37 41 28q113 -76 244 -75q115 0 195.5 49t80.5 151q0 41 -18.5 72t-62.5 54.5t-80.5 36.5t-110.5 36q-131 41 -206 102.5t-75 173.5q0 184 191 316q-45 55 -45 143q0 154 114.5 245t290.5 91q184 0 307 -92q10 -6 -14 -45l-10 -15 q-27 -37 -41 -28q-109 76 -254 76q-111 0 -188.5 -52.5t-77.5 -156.5q0 -63 48 -101.5t189 -77.5q78 -20 125 -38.5t97.5 -49t73 -78t22.5 -110.5q0 -96 -52.5 -183t-140.5 -145q47 -57 47 -135q0 -166 -121.5 -255t-289.5 -89q-170 0 -303 92zM221 717q0 -68 51.5 -105 t147.5 -65q12 -4 61 -18.5t70.5 -22.5t56.5 -22.5t60 -30.5q137 104 137 239q0 33 -14.5 58.5t-33 42t-57 34t-63.5 25.5t-76 25q-141 41 -205 79q-135 -106 -135 -239z" />
<glyph unicode="&#xa8;" horiz-adv-x="708" d="M111 1329q0 41 31.5 75t76.5 34q37 0 60.5 -26t23.5 -62q0 -43 -30.5 -75t-79.5 -32q-35 0 -58.5 25.5t-23.5 60.5zM516 1329q0 41 32 75t77 34q37 0 60.5 -26t23.5 -62q0 -43 -32 -75t-79 -32q-35 0 -58.5 25.5t-23.5 60.5z" />
<glyph unicode="&#xa9;" horiz-adv-x="1624" d="M92 625q0 223 109.5 422.5t305 324.5t429.5 125q274 0 448.5 -182t174.5 -459q0 -219 -108 -419.5t-303.5 -328.5t-426.5 -128q-274 0 -451.5 183t-177.5 462zM197 631q0 -250 148.5 -407.5t385.5 -157.5q295 0 511 236.5t216 543.5q0 248 -149.5 406.5t-384.5 158.5 q-193 0 -363 -110.5t-267 -290.5t-97 -379zM471 672q0 201 122 352.5t322 151.5q100 0 181 -48q10 -6 -11 -38l-6 -11q-18 -31 -30 -26q-76 33 -144 32q-154 0 -237.5 -125.5t-83.5 -293.5q0 -111 52 -177.5t163 -66.5q88 0 166 33q8 2 12 -2t8 -25l4 -16q8 -31 0 -35 q-94 -47 -205 -47q-154 0 -233.5 94t-79.5 248z" />
<glyph unicode="&#xaa;" horiz-adv-x="870" d="M145 1071q0 168 98.5 305t264.5 137q131 0 188 -90l19 66q2 14 47 14h10q31 0 40 -3t7 -11q-25 -143 -45 -279l-16 -114q-25 -182 -33 -281q0 -12 -49 -12h-10q-45 0 -45 14v92q-86 -117 -234 -116q-119 0 -180.5 73.5t-61.5 204.5zM264 1075q0 -193 158 -192 q88 0 151 67q59 66 78 205l25 172q-53 98 -162 98q-121 0 -185.5 -107.5t-64.5 -242.5z" />
<glyph unicode="&#xab;" horiz-adv-x="1034" d="M150 621l2 12q4 18 16 35l324 397q16 18 45 0l14 -8q29 -18 14 -37l-289 -397l179 -396q6 -18 -27 -37l-14 -8q-35 -18 -45 0l-213 398q-10 21 -6 41zM563 621l2 12q4 18 17 35l323 397q16 18 45 0l15 -8q29 -18 14 -37l-289 -397l178 -396q6 -18 -26 -37l-15 -8 q-35 -18 -45 0l-213 398q-10 21 -6 41z" />
<glyph unicode="&#xac;" d="M125 950l2 11q8 41 20 40h973l-69 -493q-2 -16 -47 -16h-7q-27 0 -35 3t-6 13l56 397h-877q-20 0 -10 45z" />
<glyph unicode="&#xad;" horiz-adv-x="765" d="M111 621l2 10q6 31 9 38t13 7h524q10 0 12.5 -7t-3.5 -40l-2 -11q-8 -47 -23 -47h-524q-18 1 -8 50z" />
<glyph unicode="&#xae;" horiz-adv-x="1624" d="M92 625q0 223 109.5 422.5t305 324.5t429.5 125q274 0 448.5 -182t174.5 -459q0 -219 -108 -419.5t-303.5 -328.5t-426.5 -128q-274 0 -451.5 183t-177.5 462zM197 631q0 -250 148.5 -407.5t385.5 -157.5q295 0 511 236.5t216 543.5q0 248 -149.5 406.5t-384.5 158.5 q-193 0 -363 -110.5t-267 -290.5t-97 -379zM518 362l111 793h231q182 0 252 -78q43 -47 43 -121q0 -135 -98 -213q-45 -35 -119 -53q57 -174 143 -321q0 -2 1 -5.5t-2 -6.5t-8 -5t-14 -3t-24 -1h-14q-47 0 -59 19q-66 104 -134 307h-159l-43 -312q-2 -14 -52 -14h-12 q-27 0 -36 3t-7 11zM680 756h113q123 0 180 45q66 49 65 139q0 61 -41 92q-47 35 -157 35h-117z" />
<glyph unicode="&#xaf;" horiz-adv-x="708" d="M133 1346l2 10q8 45 25 45h520q10 0 12 -8.5t-4 -40.5l-2 -11q-8 -45 -24 -45h-521q-18 1 -8 50z" />
<glyph unicode="&#xb0;" horiz-adv-x="714" d="M125 1159q0 139 90 237.5t236 98.5q111 0 174 -59.5t61 -169.5q0 -135 -92 -232.5t-236 -97.5q-109 0 -171 59.5t-62 163.5zM217 1167q0 -150 152 -149q100 0 161.5 71.5t61.5 174.5q0 152 -154 151q-98 0 -159.5 -73t-61.5 -175z" />
<glyph unicode="&#xb1;" d="M0 45l2 12q6 39 21 39h956q14 0 8 -45l-2 -12q-6 -39 -20 -39h-957q-14 0 -8 45zM123 907l2 13q6 39 20 38h428l62 439q2 16 47 16h6q29 0 37 -3t6 -13l-61 -439h430q14 0 8 -45l-2 -12q-6 -39 -21 -39h-430l-61 -440q-2 -16 -47 -16h-6q-29 0 -37 3t-6 13l61 440h-428 q-14 0 -8 45z" />
<glyph unicode="&#xb2;" horiz-adv-x="811" d="M141 803l2 10q4 29 23 43l184 174q4 4 46 44t57.5 56.5t50.5 56.5t50 67.5t29.5 67.5t14.5 75q0 106 -131 106q-100 0 -191 -47q-16 -8 -30 21l-6 14q-10 29 4 37q109 63 239 63q104 0 165 -46t61 -132q0 -100 -59.5 -186t-170.5 -191l-190 -178h346q10 0 11 -5t-3 -34 l-2 -12q-6 -37 -18 -37h-471q-17 0 -11 33z" />
<glyph unicode="&#xb3;" horiz-adv-x="811" d="M141 795q-16 6 4 39l7 10q12 20 16 24t14 0q76 -31 170 -30.5t153.5 46.5t59.5 136q0 131 -203 131h-57q-16 0 -8 39l2 12q6 35 18 35h64q96 0 160.5 40t64.5 132q0 100 -133 100q-90 0 -184 -45q-18 -8 -29 23l-4 14q-6 29 6 35q111 55 227 55q109 0 168.5 -45 t59.5 -125q0 -176 -174 -227q63 -12 99 -56t36 -108q0 -127 -93 -200.5t-237 -73.5q-111 0 -207 39z" />
<glyph unicode="&#xb4;" horiz-adv-x="708" d="M250 1210q0 2 2 7l168 239q14 20 74 21h22q53 0 53 -11q2 -4 -4 -10l-213 -244q-12 -12 -55 -12h-8q-41 0 -39 10z" />
<glyph unicode="&#xb5;" horiz-adv-x="1159" d="M43 -457q14 174 39 348l164 1170q2 20 57 20h16q35 0 46.5 -5t9.5 -15l-76 -539q-18 -143 -18 -194q0 -90 30 -135q55 -84 199 -84q156 0 250 88q70 63 96 186q18 80 45 276l57 402q2 20 58 20h16q35 0 46.5 -5t8.5 -15l-114 -817q-8 -61 -8 -78q0 -39 15 -51.5t58 -12.5 q10 0 11.5 -6t-2.5 -37l-3 -14q-4 -37 -18 -41q-25 -8 -68 -8q-125 0 -124 113q0 25 2 38q-135 -168 -353 -167q-82 0 -148.5 30.5t-96.5 81.5l-25 -180q-25 -184 -33 -365q0 -25 -63 -24h-13q-39 0 -51 4t-10 16z" />
<glyph unicode="&#xb6;" horiz-adv-x="1239" d="M147 989q0 217 154 351.5t430 134.5h520q12 0 14.5 -9.5t-1.5 -44.5l-2 -14q-4 -31 -9.5 -39t-17.5 -8h-125l-227 -1622q-2 -18 -64 -19h-12q-37 0 -47 4.5t-8 14.5l229 1624h-236l-229 -1624q-2 -18 -65 -19h-11q-33 0 -45 4.5t-10 14.5l127 903q-170 8 -267.5 103 t-97.5 245z" />
<glyph unicode="&#xb7;" horiz-adv-x="483" d="M145 705q0 53 39 94t92 41q41 0 71 -30t30 -75q0 -53 -39 -93t-94 -40q-41 0 -70 30t-29 73z" />
<glyph unicode="&#xb8;" horiz-adv-x="708" d="M92 -418l4 12q8 20 12.5 25.5t12.5 3.5q49 -14 106 -14q55 0 97.5 23.5t42.5 78.5q2 39 -28 57.5t-85 18.5q-59 0 -107 -10l56 209q2 12 39 12h18q14 0 23.5 -1t13.5 -4t2 -7l-35 -123q33 4 58 4q74 0 116.5 -38t42.5 -101q0 -94 -69.5 -149.5t-180.5 -55.5 q-82 0 -139 24q-10 4 0 35z" />
<glyph unicode="&#xb9;" horiz-adv-x="811" d="M223 805l2 12q4 31 17 31h129l88 622l-189 -102q-18 -10 -32 23l-5 8q-16 31 3 43l208 114q37 20 76 21h29q20 0 27.5 -3t5.5 -11l-101 -715h121q8 0 10 -6t-2 -27l-2 -12q-4 -33 -16 -33h-361q-12 0 -8 35z" />
<glyph unicode="&#xba;" horiz-adv-x="870" d="M143 1067q0 178 108.5 312t291.5 134q131 0 200.5 -72.5t69.5 -199.5q0 -180 -107.5 -314t-291.5 -134q-131 0 -201 72.5t-70 201.5zM264 1077q0 -186 170 -186q123 0 190.5 101.5t67.5 236.5q0 188 -170 188q-123 0 -190.5 -102.5t-67.5 -237.5z" />
<glyph unicode="&#xbb;" horiz-adv-x="1034" d="M70 229l288 398l-178 395q-6 18 27 37l14 8q35 18 45 0l213 -397q10 -20 6 -41l-2 -13q-4 -18 -16 -34l-324 -398q-16 -18 -45 0l-14 9q-28 18 -14 36zM483 229l289 398l-178 395q-6 18 27 37l14 8q35 18 45 0l213 -397q10 -20 6 -41l-2 -13q-4 -18 -16 -34l-324 -398 q-16 -18 -45 0l-14 9q-29 18 -15 36z" />
<glyph unicode="&#xbc;" horiz-adv-x="1814" d="M244 721l2 12q4 31 16 31h129l88 622l-188 -102q-18 -10 -33 23l-4 8q-16 31 2 43l209 115q37 20 76 20h28q20 0 27.5 -3t5.5 -11l-100 -715h121q8 0 10 -5t-2 -28l-2 -12q-4 -33 -17 -33h-360q-12 0 -8 35zM401.5 -31q-6.5 6 6.5 21l897 1497q14 23 57 22h10q35 0 43 -5 t-2 -21l-901 -1497q-14 -23 -63 -23h-11q-30 0 -36.5 6zM1012 231l2 13q6 39 41 88l280 442q14 20 54 21h20q31 0 36 -3.5t-3 -17.5l-320 -498h277l24 170q2 14 50 15h6q33 0 43 -3t8 -12l-25 -170h78q10 0 12 -5t-2 -31l-2 -13q-6 -37 -20 -37h-78l-25 -176q-2 -14 -51 -14 h-6q-33 0 -42 3t-7 11l24 176h-364q-16 0 -10 41z" />
<glyph unicode="&#xbd;" horiz-adv-x="1814" d="M168 721l2 12q4 31 16 31h129l88 622l-188 -102q-18 -10 -33 23l-4 8q-16 31 2 43l209 115q37 20 76 20h29q20 0 27 -3t5 -11l-100 -715h121q8 0 10 -5t-2 -28l-2 -12q-4 -33 -16 -33h-361q-12 0 -8 35zM325.5 -31q-6.5 6 6.5 21l897 1497q14 23 57 22h10q35 0 43.5 -5 t-2.5 -21l-901 -1497q-14 -23 -63 -23h-11q-30 0 -36.5 6zM971 33l2 10q4 29 22 43l185 174q4 4 46 44t57 56.5t50 56.5t50.5 67.5t29.5 67.5t14 75q0 106 -131 106q-100 0 -190 -47q-16 -8 -31 21l-6 14q-10 29 4 37q109 63 240 63q104 0 164.5 -46t60.5 -132 q0 -100 -59.5 -186t-169.5 -191l-191 -178h346q10 0 11.5 -5t-2.5 -34l-3 -12q-6 -37 -18 -37h-471q-16 0 -10 33z" />
<glyph unicode="&#xbe;" horiz-adv-x="1814" d="M123 711q-16 6 4 39l6 10q12 20 16.5 24t14.5 0q76 -31 170 -30.5t153.5 46.5t59.5 136q0 131 -203 131h-57q-16 0 -8 39l2 12q6 35 18 35h63q96 0 161 40t65 132q0 100 -133 100q-90 0 -185 -45q-18 -8 -28 23l-4 14q-6 29 6 35q111 55 227 55q109 0 168 -45t59 -125 q0 -176 -174 -227q63 -12 99 -56t36 -108q0 -127 -93 -200.5t-236 -73.5q-111 0 -207 39zM401.5 -31q-6.5 6 6.5 21l897 1497q14 23 57 22h10q35 0 43 -5t-2 -21l-901 -1497q-14 -23 -63 -23h-11q-30 0 -36.5 6zM1012 231l2 13q6 39 41 88l280 442q14 20 54 21h20 q31 0 36 -3.5t-3 -17.5l-320 -498h277l24 170q2 14 50 15h6q33 0 43 -3t8 -12l-25 -170h78q10 0 12 -5t-2 -31l-2 -13q-6 -37 -20 -37h-78l-25 -176q-2 -14 -51 -14h-6q-33 0 -42 3t-7 11l24 176h-364q-16 0 -10 41z" />
<glyph unicode="&#xbf;" horiz-adv-x="841" d="M82 -113q0 225 256 383q135 84 182 134.5t62 152.5l14 102q2 20 61 21h21q35 0 44 -5t7 -20l-16 -110q-16 -115 -74.5 -189.5t-208.5 -169.5q-104 -66 -153.5 -125t-49.5 -153q0 -70 41 -125q57 -76 197 -76q125 0 272 66q14 6 21.5 -1.5t15.5 -33.5l6 -21q8 -27 6 -34 t-16 -15q-164 -82 -330 -82q-197 0 -288 109q-70 71 -70 192zM598 979q0 47 36 85t89 38q37 0 62.5 -25.5t25.5 -64.5q0 -49 -33 -89t-86 -40q-39 0 -66.5 27.5t-27.5 68.5z" />
<glyph unicode="&#xc0;" horiz-adv-x="1257" d="M-36 10q-1 4 1 13l682 1425q8 16 22.5 21.5t61.5 5.5h12q80 0 84 -27l293 -1425q4 -14 -8 -18.5t-55 -4.5h-21q-68 0 -69 20l-72 377h-619l-174 -377q-10 -20 -73 -20h-11q-27 0 -40 3t-14 7zM330 512h544l-151 834zM608 1849q-8 16 17 19q12 2 32 2h31q57 0 66 -21 l100 -241q4 -10 -18 -13q-10 -2 -25 -2h-8q-43 0 -51 13z" />
<glyph unicode="&#xc1;" horiz-adv-x="1257" d="M-36 10q-1 4 1 13l682 1425q8 16 22.5 21.5t61.5 5.5h12q80 0 84 -27l293 -1425q4 -14 -8 -18.5t-55 -4.5h-21q-68 0 -69 20l-72 377h-619l-174 -377q-10 -20 -73 -20h-11q-27 0 -40 3t-14 7zM330 512h544l-151 834zM659 1604q0 2 3 6l167 239q14 20 74 21h23 q53 0 53 -10q2 -4 -4 -11l-213 -243q-12 -12 -55 -13h-9q-41 1 -39 11z" />
<glyph unicode="&#xc2;" horiz-adv-x="1257" d="M-36 10q-1 4 1 13l682 1425q8 16 22.5 21.5t61.5 5.5h12q80 0 84 -27l293 -1425q4 -14 -8 -18.5t-55 -4.5h-21q-68 0 -69 20l-72 377h-619l-174 -377q-10 -20 -73 -20h-11q-27 0 -40 3t-14 7zM330 512h544l-151 834zM463 1661l217 205q23 20 72 20h53q45 0 63 -20 l160 -205q8 -10 -12 -31l-12 -12q-25 -25 -33 -14l-199 198l-268 -198q-12 -10 -29 14l-8 12q-14 21 -4 31z" />
<glyph unicode="&#xc3;" horiz-adv-x="1257" d="M-36 10q-1 4 1 13l682 1425q8 16 22.5 21.5t61.5 5.5h12q80 0 84 -27l293 -1425q4 -14 -8 -18.5t-55 -4.5h-21q-68 0 -69 20l-72 377h-619l-174 -377q-10 -20 -73 -20h-11q-27 0 -40 3t-14 7zM330 512h544l-151 834zM469 1751q82 90 184 90q57 0 133 -39t119 -39 q57 0 125 62q12 8 29 -17l10 -14q16 -25 2 -39q-82 -90 -184 -90q-59 0 -135 39t-117 39q-61 0 -121 -57q-12 -12 -35 16l-8 12q-14 25 -2 37z" />
<glyph unicode="&#xc4;" horiz-adv-x="1257" d="M-36 10q-1 4 1 13l682 1425q8 16 22.5 21.5t61.5 5.5h12q80 0 84 -27l293 -1425q4 -14 -8 -18.5t-55 -4.5h-21q-68 0 -69 20l-72 377h-619l-174 -377q-10 -20 -73 -20h-11q-27 0 -40 3t-14 7zM330 512h544l-151 834zM467 1722q0 41 31.5 75t76.5 34q37 0 60.5 -25.5 t23.5 -62.5q0 -43 -30.5 -75t-79.5 -32q-35 0 -58.5 25.5t-23.5 60.5zM872 1722q0 41 32 75t77 34q37 0 60.5 -25.5t23.5 -62.5q0 -43 -32 -75t-79 -32q-35 0 -58.5 25.5t-23.5 60.5z" />
<glyph unicode="&#xc5;" horiz-adv-x="1255" d="M-37 14q0 4 2 9l682 1419q-74 41 -74 139q0 82 61.5 143.5t153.5 61.5q72 0 119 -45t47 -115q0 -59 -34.5 -110.5t-92.5 -77.5l291 -1415q2 -8 -2 -12.5t-17.5 -7.5t-41.5 -3h-21q-66 0 -71 20l-70 377h-619l-176 -377q-10 -20 -71 -20h-11q-16 0 -26 1t-16.5 3t-9.5 4 t-3 6zM330 512h544l-153 834zM659 1583q0 -39 26 -62.5t65 -23.5q47 0 80.5 35t33.5 86q0 37 -23.5 62.5t-62.5 25.5q-49 0 -84 -35t-35 -88z" />
<glyph unicode="&#xc6;" horiz-adv-x="1796" d="M-70 12q0 4 4 11l1002 1429q18 23 70 23h774q12 0 15 -9.5t-3 -44.5l-2 -12q-6 -33 -11 -42t-16 -9h-635l-77 -553h538q23 0 13 -53l-3 -13q-6 -33 -11 -42t-15 -9h-539l-80 -571h643q23 0 13 -54l-2 -12q-6 -33 -11.5 -42t-15.5 -9h-782l57 408h-512l-268 -388 q-14 -20 -78 -20h-12q-56 0 -56 12zM424 524h448l113 803z" />
<glyph unicode="&#xc7;" horiz-adv-x="1130" d="M94 553q0 131 26.5 262t86 254t142.5 217t207 151.5t269 57.5q182 0 322 -90q8 -6 7 -13.5t-17 -35.5l-15 -27q-14 -25 -21 -30t-18 1q-141 74 -266 74q-150 0 -265.5 -75.5t-181 -200.5t-98 -264.5t-32.5 -284.5q0 -449 393 -449q154 0 295 68q12 6 19 -3t11 -36l5 -20 q8 -43 -9 -52q-152 -74 -346 -77l-33 -117q33 4 58 4q74 0 117 -38t43 -101q0 -94 -70 -149.5t-180 -55.5q-82 0 -140 24q-10 4 0 35l5 12q8 20 12 25.5t12 3.5q49 -14 107 -14q55 0 97 23.5t42 78.5q2 39 -27.5 57.5t-85.5 18.5q-59 0 -106 -10l55 207q-205 23 -312.5 173 t-107.5 396z" />
<glyph unicode="&#xc8;" horiz-adv-x="1071" d="M74 0l207 1475h774q12 0 15 -9.5t-3 -44.5l-2 -12q-6 -33 -11 -42t-16 -9h-635l-77 -553h538q23 0 13 -53l-3 -13q-6 -33 -11 -42t-15 -9h-539l-80 -571h643q23 0 13 -54l-2 -12q-6 -33 -11.5 -42t-15.5 -9h-782zM559 1849q-8 16 16 19q12 2 33 2h31q57 0 66 -21 l100 -241q4 -10 -19 -13q-10 -2 -24 -2h-8q-43 0 -52 13z" />
<glyph unicode="&#xc9;" horiz-adv-x="1071" d="M74 0l207 1475h774q12 0 15 -9.5t-3 -44.5l-2 -12q-6 -33 -11 -42t-16 -9h-635l-77 -553h538q23 0 13 -53l-3 -13q-6 -33 -11 -42t-15 -9h-539l-80 -571h643q23 0 13 -54l-2 -12q-6 -33 -11.5 -42t-15.5 -9h-782zM569 1604q0 2 2 6l168 239q14 20 74 21h23q53 0 53 -10 q2 -4 -4 -11l-213 -243q-12 -12 -56 -13h-8q-41 1 -39 11z" />
<glyph unicode="&#xca;" horiz-adv-x="1071" d="M74 0l207 1475h774q12 0 15 -9.5t-3 -44.5l-2 -12q-6 -33 -11 -42t-16 -9h-635l-77 -553h538q23 0 13 -53l-3 -13q-6 -33 -11 -42t-15 -9h-539l-80 -571h643q23 0 13 -54l-2 -12q-6 -33 -11.5 -42t-15.5 -9h-782zM416 1661l217 205q23 20 72 20h53q45 0 63 -20l160 -205 q8 -10 -12 -31l-13 -12q-23 -25 -32 -14l-199 198l-268 -198q-12 -10 -29 14l-8 12q-14 21 -4 31z" />
<glyph unicode="&#xcb;" horiz-adv-x="1071" d="M74 0l207 1475h774q12 0 15 -9.5t-3 -44.5l-2 -12q-6 -33 -11 -42t-16 -9h-635l-77 -553h538q23 0 13 -53l-3 -13q-6 -33 -11 -42t-15 -9h-539l-80 -571h643q23 0 13 -54l-2 -12q-6 -33 -11.5 -42t-15.5 -9h-782zM412 1722q0 41 31.5 75t76.5 34q37 0 60.5 -25.5 t23.5 -62.5q0 -43 -30.5 -75t-79.5 -32q-35 0 -58.5 25.5t-23.5 60.5zM817 1722q0 41 32 75t77 34q37 0 60.5 -25.5t23.5 -62.5q0 -43 -32 -75t-79 -32q-35 0 -58.5 25.5t-23.5 60.5z" />
<glyph unicode="&#xcc;" horiz-adv-x="731" d="M45 45l2 10q6 31 9 36t14 5h151l180 1282h-153q-18 0 -8 45l2 11q6 29 9 35t13 6h438q6 0 9.5 -2.5t3.5 -12.5t-4 -30l-2 -11q-6 -31 -9.5 -36t-13.5 -5h-147l-181 -1282h152q6 0 9 -2t3 -12t-4 -31l-2 -10q-6 -31 -9 -36t-13 -5h-441q-18 0 -8 45zM354 1849q-8 16 17 19 q12 2 32 2h31q57 0 66 -21l100 -241q4 -10 -18 -13q-10 -2 -25 -2h-8q-43 0 -51 13z" />
<glyph unicode="&#xcd;" horiz-adv-x="731" d="M45 45l2 10q6 31 9 36t14 5h151l180 1282h-153q-18 0 -8 45l2 11q6 29 9 35t13 6h438q6 0 9.5 -2.5t3.5 -12.5t-4 -30l-2 -11q-6 -31 -9.5 -36t-13.5 -5h-147l-181 -1282h152q6 0 9 -2t3 -12t-4 -31l-2 -10q-6 -31 -9 -36t-13 -5h-441q-18 0 -8 45zM399 1604q0 2 2 6 l168 239q14 20 74 21h23q53 0 53 -10q2 -4 -4 -11l-213 -243q-12 -12 -56 -13h-8q-41 1 -39 11z" />
<glyph unicode="&#xce;" horiz-adv-x="731" d="M45 45l2 10q6 31 9 36t14 5h151l180 1282h-153q-18 0 -8 45l2 11q6 29 9 35t13 6h438q6 0 9.5 -2.5t3.5 -12.5t-4 -30l-2 -11q-6 -31 -9.5 -36t-13.5 -5h-147l-181 -1282h152q6 0 9 -2t3 -12t-4 -31l-2 -10q-6 -31 -9 -36t-13 -5h-441q-18 0 -8 45zM229 1661l217 205 q23 20 72 20h53q45 0 64 -20l160 -205q8 -10 -13 -31l-12 -12q-25 -25 -33 -14l-198 198l-269 -198q-12 -10 -28 14l-9 12q-14 21 -4 31z" />
<glyph unicode="&#xcf;" horiz-adv-x="731" d="M45 45l2 10q6 31 9 36t14 5h151l180 1282h-153q-18 0 -8 45l2 11q6 29 9 35t13 6h438q6 0 9.5 -2.5t3.5 -12.5t-4 -30l-2 -11q-6 -31 -9.5 -36t-13.5 -5h-147l-181 -1282h152q6 0 9 -2t3 -12t-4 -31l-2 -10q-6 -31 -9 -36t-13 -5h-441q-18 0 -8 45zM223 1722q0 41 32 75 t77 34q37 0 60.5 -25.5t23.5 -62.5q0 -43 -31 -75t-80 -32q-35 0 -58.5 25.5t-23.5 60.5zM629 1722q0 41 31.5 75t76.5 34q37 0 60.5 -25.5t23.5 -62.5q0 -43 -31.5 -75t-78.5 -32q-35 0 -58.5 25.5t-23.5 60.5z" />
<glyph unicode="&#xd0;" horiz-adv-x="1308" d="M57 702.5q-2 8.5 2 38.5l2 13q4 31 8.5 38t14.5 7h115l96 676h326q193 0 315.5 -47.5t200.5 -145.5q106 -137 106 -373q0 -483 -276 -741q-98 -90 -229.5 -129t-321.5 -39h-328l96 694h-114q-11 0 -13 8.5zM244 115h176q158 0 258 33.5t186 107.5q233 205 234 645 q0 205 -94 320q-61 74 -155.5 106.5t-256.5 32.5h-172l-80 -561h338q10 0 12 -8.5t-2 -38.5l-2 -13q-4 -31 -8 -38t-14 -7h-338z" />
<glyph unicode="&#xd1;" horiz-adv-x="1357" d="M72 18l202 1438q2 18 74 19h12q68 0 78 -21l574 -1259l176 1261q2 18 57 19h12q33 0 45.5 -4.5t10.5 -14.5l-203 -1438q-2 -18 -72 -18h-12q-47 0 -60.5 4t-17.5 16l-573 1260l-178 -1262q-2 -18 -60 -18h-12q-33 0 -44 4t-9 14zM508 1751q82 90 184 90q57 0 133 -39 t119 -39q57 0 125 62q12 8 29 -17l10 -14q16 -25 2 -39q-82 -90 -184 -90q-61 0 -135 39t-117 39q-61 0 -121 -57q-12 -12 -35 16l-8 12q-14 25 -2 37z" />
<glyph unicode="&#xd2;" horiz-adv-x="1390" d="M94 547q0 137 28 270t87 257t144 217t210 148.5t275 55.5q227 0 359 -140.5t132 -410.5q0 -141 -27.5 -276.5t-87 -261t-145.5 -220t-211 -150.5t-272 -56q-227 0 -359.5 146.5t-132.5 420.5zM242 547q0 -446 366 -447q145 0 260 77t180.5 200t99.5 261t34 277 q0 227 -93.5 343t-273.5 116q-147 0 -262 -77.5t-180.5 -202.5t-98 -265.5t-32.5 -281.5zM725 1849q-8 16 16 19q12 2 33 2h31q57 0 65 -21l101 -241q4 -10 -19 -13q-10 -2 -24 -2h-8q-43 0 -52 13z" />
<glyph unicode="&#xd3;" horiz-adv-x="1390" d="M94 547q0 137 28 270t87 257t144 217t210 148.5t275 55.5q227 0 359 -140.5t132 -410.5q0 -141 -27.5 -276.5t-87 -261t-145.5 -220t-211 -150.5t-272 -56q-227 0 -359.5 146.5t-132.5 420.5zM242 547q0 -446 366 -447q145 0 260 77t180.5 200t99.5 261t34 277 q0 227 -93.5 343t-273.5 116q-147 0 -262 -77.5t-180.5 -202.5t-98 -265.5t-32.5 -281.5zM756 1604q0 2 2 6l168 239q14 20 73 21h23q53 0 53 -10q2 -4 -4 -11l-213 -243q-12 -12 -55 -13h-8q-41 1 -39 11z" />
<glyph unicode="&#xd4;" horiz-adv-x="1390" d="M94 547q0 137 28 270t87 257t144 217t210 148.5t275 55.5q227 0 359 -140.5t132 -410.5q0 -141 -27.5 -276.5t-87 -261t-145.5 -220t-211 -150.5t-272 -56q-227 0 -359.5 146.5t-132.5 420.5zM242 547q0 -446 366 -447q145 0 260 77t180.5 200t99.5 261t34 277 q0 227 -93.5 343t-273.5 116q-147 0 -262 -77.5t-180.5 -202.5t-98 -265.5t-32.5 -281.5zM594 1661l217 205q23 20 72 20h53q45 0 63 -20l160 -205q8 -10 -12 -31l-12 -12q-25 -25 -33 -14l-199 198l-268 -198q-12 -10 -29 14l-8 12q-14 21 -4 31z" />
<glyph unicode="&#xd5;" horiz-adv-x="1390" d="M94 547q0 137 28 270t87 257t144 217t210 148.5t275 55.5q227 0 359 -140.5t132 -410.5q0 -141 -27.5 -276.5t-87 -261t-145.5 -220t-211 -150.5t-272 -56q-227 0 -359.5 146.5t-132.5 420.5zM242 547q0 -446 366 -447q145 0 260 77t180.5 200t99.5 261t34 277 q0 227 -93.5 343t-273.5 116q-147 0 -262 -77.5t-180.5 -202.5t-98 -265.5t-32.5 -281.5zM588 1751q82 90 184 90q57 0 133 -39t119 -39q57 0 125 62q12 8 29 -17l10 -14q16 -25 2 -39q-82 -90 -184 -90q-59 0 -135 39t-117 39q-61 0 -121 -57q-12 -12 -35 16l-8 12 q-14 25 -2 37z" />
<glyph unicode="&#xd6;" horiz-adv-x="1390" d="M94 547q0 137 28 270t87 257t144 217t210 148.5t275 55.5q227 0 359 -140.5t132 -410.5q0 -141 -27.5 -276.5t-87 -261t-145.5 -220t-211 -150.5t-272 -56q-227 0 -359.5 146.5t-132.5 420.5zM242 547q0 -446 366 -447q145 0 260 77t180.5 200t99.5 261t34 277 q0 227 -93.5 343t-273.5 116q-147 0 -262 -77.5t-180.5 -202.5t-98 -265.5t-32.5 -281.5zM569 1722q0 41 32 75t77 34q37 0 60.5 -25.5t23.5 -62.5q0 -43 -31 -75t-80 -32q-35 0 -58.5 25.5t-23.5 60.5zM975 1722q0 41 31.5 75t76.5 34q37 0 60.5 -25.5t23.5 -62.5 q0 -43 -31.5 -75t-78.5 -32q-35 0 -58.5 25.5t-23.5 60.5z" />
<glyph unicode="&#xd7;" d="M176 436l346 309l-260 310q-10 14 21 41l10 8q37 29 49 16l256 -307l344 307q16 12 41 -14l8 -8q25 -29 13 -41l-349 -312l260 -309q8 -12 -22 -43l-8 -8q-33 -33 -47 -16l-260 309l-347 -311q-14 -12 -38 18l-9 10q-22 29 -8 41z" />
<glyph unicode="&#xd8;" horiz-adv-x="1390" d="M16 4l158 189q-82 139 -82 354q0 137 27.5 270t87 257t144.5 217t210 148.5t275 55.5q207 0 338 -119l147 174q16 20 51 -10l21 -18q33 -29 18 -47l-164 -193q80 -135 80 -338q0 -141 -27.5 -276.5t-87 -261t-145.5 -220t-211 -150.5t-272 -56q-209 0 -334 118l-141 -170 q-16 -20 -52 11l-20 18q-35 31 -21 47zM240 547q0 -141 36 -236l803 955q-92 109 -266 108q-147 0 -262 -77.5t-180.5 -202.5t-98 -265.5t-32.5 -281.5zM340 203q90 -102 266 -103q145 0 260 77t180.5 200t99.5 261t34 277q0 145 -37 240z" />
<glyph unicode="&#xd9;" horiz-adv-x="1343" d="M125 383q0 80 12 162l127 911q2 18 64 19h14q39 0 51.5 -4.5t9.5 -14.5l-124 -893q-12 -102 -13 -145q0 -147 62 -221q86 -98 270 -99q186 0 293 101q119 106 156 364l124 893q2 18 64 19h12q37 0 50.5 -4.5t11.5 -14.5l-127 -909q-41 -297 -201 -434 q-156 -133 -399 -133q-252 0 -367 131q-90 102 -90 272zM659 1849q-8 16 17 19q12 2 33 2h30q57 0 66 -21l100 -241q4 -10 -18 -13q-10 -2 -25 -2h-8q-43 0 -51 13z" />
<glyph unicode="&#xda;" horiz-adv-x="1343" d="M125 383q0 80 12 162l127 911q2 18 64 19h14q39 0 51.5 -4.5t9.5 -14.5l-124 -893q-12 -102 -13 -145q0 -147 62 -221q86 -98 270 -99q186 0 293 101q119 106 156 364l124 893q2 18 64 19h12q37 0 50.5 -4.5t11.5 -14.5l-127 -909q-41 -297 -201 -434 q-156 -133 -399 -133q-252 0 -367 131q-90 102 -90 272zM694 1604q0 2 2 6l168 239q14 20 74 21h23q53 0 53 -10q2 -4 -4 -11l-213 -243q-12 -12 -56 -13h-8q-41 1 -39 11z" />
<glyph unicode="&#xdb;" horiz-adv-x="1343" d="M125 383q0 80 12 162l127 911q2 18 64 19h14q39 0 51.5 -4.5t9.5 -14.5l-124 -893q-12 -102 -13 -145q0 -147 62 -221q86 -98 270 -99q186 0 293 101q119 106 156 364l124 893q2 18 64 19h12q37 0 50.5 -4.5t11.5 -14.5l-127 -909q-41 -297 -201 -434 q-156 -133 -399 -133q-252 0 -367 131q-90 102 -90 272zM537 1661l217 205q23 20 71 20h54q45 0 63 -20l160 -205q8 -10 -12 -31l-13 -12q-25 -25 -33 -14l-198 198l-268 -198q-12 -10 -29 14l-8 12q-14 21 -4 31z" />
<glyph unicode="&#xdc;" horiz-adv-x="1343" d="M125 383q0 80 12 162l127 911q2 18 64 19h14q39 0 51.5 -4.5t9.5 -14.5l-124 -893q-12 -102 -13 -145q0 -147 62 -221q86 -98 270 -99q186 0 293 101q119 106 156 364l124 893q2 18 64 19h12q37 0 50.5 -4.5t11.5 -14.5l-127 -909q-41 -297 -201 -434 q-156 -133 -399 -133q-252 0 -367 131q-90 102 -90 272zM514 1722q0 41 32 75t77 34q37 0 60.5 -25.5t23.5 -62.5q0 -43 -31 -75t-80 -32q-35 0 -58.5 25.5t-23.5 60.5zM920 1722q0 41 31.5 75t76.5 34q37 0 60.5 -25.5t23.5 -62.5q0 -43 -31.5 -75t-79.5 -32 q-35 0 -58 25.5t-23 60.5z" />
<glyph unicode="&#xdd;" horiz-adv-x="1050" d="M143 1450q-2 8 0 13t17.5 8.5t44.5 3.5h16q66 0 72 -23l242 -756l456 760q12 18 74 19h18q53 0 56 -15q0 -4 -4 -10l-555 -881l-78 -551q-2 -18 -66 -18h-16q-35 0 -46.5 4t-8.5 14l77 551zM549 1604q0 2 2 6l168 239q14 20 74 21h22q53 0 53 -10q2 -4 -4 -11l-213 -243 q-12 -12 -55 -13h-8q-41 1 -39 11z" />
<glyph unicode="&#xde;" horiz-adv-x="1075" d="M76 18l203 1438q2 18 61 19h14q37 0 51.5 -4.5t12.5 -14.5l-43 -311q113 20 231 20q205 0 317.5 -86t112.5 -250q0 -221 -151.5 -346t-390.5 -125q-121 0 -228 21l-51 -361q-2 -18 -68 -18h-14q-37 0 -48 4t-9 14zM283 492q92 -18 223 -19q172 0 277.5 85t105.5 261 q0 231 -303 232q-113 0 -228 -19z" />
<glyph unicode="&#xdf;" horiz-adv-x="1214" d="M68 20l149 1057q37 256 153.5 378t317.5 122q125 0 209 -66.5t84 -181.5q0 -164 -160 -309q-117 -109 -116 -203q0 -47 34.5 -82t132.5 -78q121 -53 173.5 -120.5t52.5 -182.5q0 -162 -106.5 -268t-295.5 -106q-162 0 -282 73q-16 10 12 58l6 10q18 31 28.5 37t18.5 -2 q96 -59 219 -60q125 0 200 66.5t75 179.5q0 45 -11.5 78t-40 57.5t-54 37.5t-74.5 36q-213 90 -213 250q0 139 165 293q111 106 111 215q2 72 -48 114.5t-140 42.5q-133 0 -212 -90t-108 -295l-149 -1061q-2 -20 -62 -20h-16q-35 0 -45 4t-8 16z" />
<glyph unicode="&#xe0;" horiz-adv-x="1130" d="M82 403q0 166 59.5 322t189.5 266.5t304 110.5q193 0 274 -150l27 109q4 12 12 16t39 4h14q33 0 41.5 -5t6.5 -19q-29 -193 -45 -301l-43 -299q-31 -211 -48 -441q-2 -16 -53 -16h-6q-51 0 -51 18l2 127q-121 -166 -334 -165q-197 0 -293 116.5t-96 306.5zM225 416 q0 -315 262 -316q141 0 228 82q51 49 76.5 114.5t46.5 207.5l43 307q-82 168 -256 168q-131 0 -225.5 -92t-134.5 -216t-40 -255zM539 1456q-8 16 16 19q12 2 33 2h30q57 0 66 -21l100 -242q4 -10 -18 -12q-10 -2 -25 -2h-8q-43 0 -51 12z" />
<glyph unicode="&#xe1;" horiz-adv-x="1130" d="M82 403q0 166 59.5 322t189.5 266.5t304 110.5q193 0 274 -150l27 109q4 12 12 16t39 4h14q33 0 41.5 -5t6.5 -19q-29 -193 -45 -301l-43 -299q-31 -211 -48 -441q-2 -16 -53 -16h-6q-51 0 -51 18l2 127q-121 -166 -334 -165q-197 0 -293 116.5t-96 306.5zM225 416 q0 -315 262 -316q141 0 228 82q51 49 76.5 114.5t46.5 207.5l43 307q-82 168 -256 168q-131 0 -225.5 -92t-134.5 -216t-40 -255zM545 1210q0 2 2 7l168 239q14 20 73 21h23q53 0 53 -11q2 -4 -4 -10l-213 -244q-12 -12 -55 -12h-8q-41 0 -39 10z" />
<glyph unicode="&#xe2;" horiz-adv-x="1130" d="M82 403q0 166 59.5 322t189.5 266.5t304 110.5q193 0 274 -150l27 109q4 12 12 16t39 4h14q33 0 41.5 -5t6.5 -19q-29 -193 -45 -301l-43 -299q-31 -211 -48 -441q-2 -16 -53 -16h-6q-51 0 -51 18l2 127q-121 -166 -334 -165q-197 0 -293 116.5t-96 306.5zM225 416 q0 -315 262 -316q141 0 228 82q51 49 76.5 114.5t46.5 207.5l43 307q-82 168 -256 168q-131 0 -225.5 -92t-134.5 -216t-40 -255zM373 1268l217 205q23 20 72 20h53q45 0 63 -20l160 -205q8 -10 -12 -31l-13 -12q-25 -25 -32 -15l-199 199l-268 -199q-12 -10 -29 15l-8 12 q-14 21 -4 31z" />
<glyph unicode="&#xe3;" horiz-adv-x="1130" d="M82 403q0 166 59.5 322t189.5 266.5t304 110.5q193 0 274 -150l27 109q4 12 12 16t39 4h14q33 0 41.5 -5t6.5 -19q-29 -193 -45 -301l-43 -299q-31 -211 -48 -441q-2 -16 -53 -16h-6q-51 0 -51 18l2 127q-121 -166 -334 -165q-197 0 -293 116.5t-96 306.5zM225 416 q0 -315 262 -316q141 0 228 82q51 49 76.5 114.5t46.5 207.5l43 307q-82 168 -256 168q-131 0 -225.5 -92t-134.5 -216t-40 -255zM401 1358q82 90 185 90q57 0 133 -39t119 -39q57 0 125 62q12 8 28 -17l10 -14q16 -25 3 -39q-82 -90 -185 -90q-61 0 -135 39t-117 39 q-61 0 -121 -58q-12 -12 -34 17l-9 12q-14 25 -2 37z" />
<glyph unicode="&#xe4;" horiz-adv-x="1130" d="M82 403q0 166 59.5 322t189.5 266.5t304 110.5q193 0 274 -150l27 109q4 12 12 16t39 4h14q33 0 41.5 -5t6.5 -19q-29 -193 -45 -301l-43 -299q-31 -211 -48 -441q-2 -16 -53 -16h-6q-51 0 -51 18l2 127q-121 -166 -334 -165q-197 0 -293 116.5t-96 306.5zM225 416 q0 -315 262 -316q141 0 228 82q51 49 76.5 114.5t46.5 207.5l43 307q-82 168 -256 168q-131 0 -225.5 -92t-134.5 -216t-40 -255zM389 1329q0 41 32 75t77 34q37 0 60.5 -26t23.5 -62q0 -43 -31 -75t-80 -32q-35 0 -58.5 25.5t-23.5 60.5zM795 1329q0 41 31.5 75t76.5 34 q37 0 60.5 -26t23.5 -62q0 -43 -31.5 -75t-78.5 -32q-35 0 -58.5 25.5t-23.5 60.5z" />
<glyph unicode="&#xe5;" horiz-adv-x="1130" d="M82 403q0 166 59.5 322t189.5 266.5t304 110.5q193 0 274 -150l27 109q4 12 12 16t39 4h14q33 0 41.5 -5t6.5 -19q-29 -193 -45 -301l-43 -299q-31 -211 -48 -441q-2 -16 -53 -16h-6q-51 0 -51 18l2 127q-121 -166 -334 -165q-197 0 -293 116.5t-96 306.5zM225 416 q0 -315 262 -316q141 0 228 82q51 49 76.5 114.5t46.5 207.5l43 307q-82 168 -256 168q-131 0 -225.5 -92t-134.5 -216t-40 -255zM514 1346q0 88 58.5 147t156.5 59q72 0 119 -45t47 -114q0 -86 -63.5 -147.5t-151.5 -61.5q-72 0 -119 45t-47 117zM600 1356 q0 -39 25.5 -65.5t64.5 -26.5q47 0 81 34.5t34 83.5q0 39 -23.5 65t-66.5 26q-53 0 -84 -33t-31 -84z" />
<glyph unicode="&#xe6;" horiz-adv-x="1730" d="M53 272q0 186 128 288t335 102q145 0 270 -54l11 68q10 61 10 98q0 109 -62.5 158t-193.5 49q-135 0 -285 -55q-12 -4 -19 4t-11 39l-3 12q-4 31 -3 40t12 13q170 68 331 68q315 0 340 -215q133 215 392 215q117 0 198.5 -58.5t116.5 -162.5q31 -92 31 -207 q0 -68 -9 -125q-6 -33 -13 -42t-21 -9h-701q-4 -31 -4 -86q0 -154 64 -224q72 -84 219 -84q154 0 282 62q16 8 24.5 2t16.5 -35l4 -20q8 -45 -6 -54q-160 -80 -354 -79q-131 0 -223 55t-125 143q-166 -199 -414 -198q-152 0 -245 79.5t-93 212.5zM195 287q0 -90 57 -139.5 t168 -49.5q203 0 352 183q-12 59 -12 125q0 45 6 90q-115 59 -258 59q-137 0 -225 -69.5t-88 -198.5zM924 604h592q4 49 4 80q4 133 -55.5 213t-182.5 80q-135 0 -228 -95.5t-130 -277.5z" />
<glyph unicode="&#xe7;" horiz-adv-x="966" d="M82 414q0 166 62.5 319.5t197.5 261t315 107.5q172 0 301 -92q16 -10 -12 -58l-10 -16q-27 -47 -49 -31q-111 72 -236 72q-135 0 -235.5 -85t-145.5 -209t-45 -263q0 -147 67.5 -233.5t213.5 -86.5q150 0 272 62q16 6 20.5 1t12.5 -34l6 -25q10 -39 -8 -49 q-139 -72 -311 -75l-33 -117q33 4 57 4q74 0 117 -38t43 -101q0 -94 -69.5 -149.5t-180.5 -55.5q-82 0 -139 24q-10 4 0 35l4 12q8 20 12 25.5t13 3.5q49 -14 106 -14q55 0 97 23.5t42 78.5q2 39 -27.5 57.5t-84.5 18.5q-59 0 -107 -10l55 209q-160 25 -240.5 139.5 t-80.5 288.5z" />
<glyph unicode="&#xe8;" horiz-adv-x="1087" d="M82 414q0 100 22.5 198.5t69.5 186.5t113.5 155.5t160 107.5t201.5 40q252 0 326 -221q33 -92 33 -207q0 -68 -9 -125q-6 -33 -13 -42t-23 -9h-734q-4 -53 -4 -78q0 -158 76 -234q76 -82 240 -82q145 0 288 64q12 4 18.5 -1t14.5 -34l6 -20q12 -43 -4 -52 q-158 -82 -360.5 -81.5t-312 117t-109.5 317.5zM246 604h624q4 49 4 80q0 129 -59 211t-184 82q-291 0 -385 -373zM496 1456q-8 16 16 19q12 2 33 2h30q57 0 66 -21l100 -242q4 -10 -18 -12q-10 -2 -25 -2h-8q-43 0 -51 12z" />
<glyph unicode="&#xe9;" horiz-adv-x="1087" d="M82 414q0 100 22.5 198.5t69.5 186.5t113.5 155.5t160 107.5t201.5 40q252 0 326 -221q33 -92 33 -207q0 -68 -9 -125q-6 -33 -13 -42t-23 -9h-734q-4 -53 -4 -78q0 -158 76 -234q76 -82 240 -82q145 0 288 64q12 4 18.5 -1t14.5 -34l6 -20q12 -43 -4 -52 q-158 -82 -360.5 -81.5t-312 117t-109.5 317.5zM246 604h624q4 49 4 80q0 129 -59 211t-184 82q-291 0 -385 -373zM522 1210q0 2 2 7l168 239q14 20 74 21h22q53 0 54 -11q2 -4 -4 -10l-213 -244q-12 -12 -56 -12h-8q-41 0 -39 10z" />
<glyph unicode="&#xea;" horiz-adv-x="1087" d="M82 414q0 100 22.5 198.5t69.5 186.5t113.5 155.5t160 107.5t201.5 40q252 0 326 -221q33 -92 33 -207q0 -68 -9 -125q-6 -33 -13 -42t-23 -9h-734q-4 -53 -4 -78q0 -158 76 -234q76 -82 240 -82q145 0 288 64q12 4 18.5 -1t14.5 -34l6 -20q12 -43 -4 -52 q-158 -82 -360.5 -81.5t-312 117t-109.5 317.5zM246 604h624q4 49 4 80q0 129 -59 211t-184 82q-291 0 -385 -373zM377 1268l217 205q23 20 72 20h53q45 0 63 -20l160 -205q8 -10 -12 -31l-12 -12q-25 -25 -33 -15l-199 199l-268 -199q-12 -10 -29 15l-8 12q-14 21 -4 31z " />
<glyph unicode="&#xeb;" horiz-adv-x="1087" d="M82 414q0 100 22.5 198.5t69.5 186.5t113.5 155.5t160 107.5t201.5 40q252 0 326 -221q33 -92 33 -207q0 -68 -9 -125q-6 -33 -13 -42t-23 -9h-734q-4 -53 -4 -78q0 -158 76 -234q76 -82 240 -82q145 0 288 64q12 4 18.5 -1t14.5 -34l6 -20q12 -43 -4 -52 q-158 -82 -360.5 -81.5t-312 117t-109.5 317.5zM246 604h624q4 49 4 80q0 129 -59 211t-184 82q-291 0 -385 -373zM375 1329q0 41 31.5 75t76.5 34q37 0 60.5 -26t23.5 -62q0 -43 -30.5 -75t-79.5 -32q-35 0 -58.5 25.5t-23.5 60.5zM780 1329q0 41 32 75t77 34 q37 0 60.5 -26t23.5 -62q0 -43 -32 -75t-79 -32q-35 0 -58.5 25.5t-23.5 60.5z" />
<glyph unicode="&#xec;" horiz-adv-x="456" d="M80 20l147 1043q2 18 58 18h16q35 0 46 -4t9 -14l-147 -1043q-2 -20 -57 -20h-17q-35 0 -46 5t-9 15zM154 1456q-8 16 16 19q12 2 33 2h30q57 0 66 -21l100 -242q4 -10 -18 -12q-10 -2 -25 -2h-8q-43 0 -51 12z" />
<glyph unicode="&#xed;" horiz-adv-x="456" d="M80 20l147 1043q2 18 58 18h16q35 0 46 -4t9 -14l-147 -1043q-2 -20 -57 -20h-17q-35 0 -46 5t-9 15zM211 1210q0 2 2 7l168 239q14 20 74 21h22q53 0 53 -11q2 -4 -4 -10l-213 -244q-12 -12 -55 -12h-8q-41 0 -39 10z" />
<glyph unicode="&#xee;" horiz-adv-x="456" d="M27 1268l217 205q23 20 71 20h54q45 0 63 -20l160 -205q8 -10 -12 -31l-13 -12q-23 -25 -32 -15l-199 199l-268 -199q-12 -10 -29 15l-8 12q-14 21 -4 31zM80 20l147 1043q2 18 58 18h16q35 0 46 -4t9 -14l-147 -1043q-2 -20 -57 -20h-17q-35 0 -46 5t-9 15z" />
<glyph unicode="&#xef;" horiz-adv-x="456" d="M27 1329q0 41 31.5 75t76.5 34q37 0 60.5 -26t23.5 -62q0 -43 -30.5 -75t-79.5 -32q-35 0 -58.5 25.5t-23.5 60.5zM80 20l147 1043q2 18 58 18h16q35 0 46 -4t9 -14l-147 -1043q-2 -20 -57 -20h-17q-35 0 -46 5t-9 15zM432 1329q0 41 32 75t77 34q37 0 60.5 -26t23.5 -62 q0 -43 -32 -75t-79 -32q-35 0 -58.5 25.5t-23.5 60.5z" />
<glyph unicode="&#xf0;" horiz-adv-x="1134" d="M66 408q0 162 63.5 307t192.5 243.5t294 98.5q152 0 254 -84q-66 207 -247 354l-293 -131q-10 -4 -15.5 0t-13.5 25l-6 16q-12 31 2 37l248 110q-80 55 -195 115q-14 8 10 45l13 19q14 20 20 24t19 0q133 -53 260 -145l264 117q18 10 29 -23l6 -18q10 -31 0 -35 l-228 -101q289 -250 289 -630q0 -78 -12 -164q-45 -317 -196.5 -462.5t-364.5 -145.5q-176 0 -284.5 114.5t-108.5 313.5zM205 418q0 -147 73.5 -232.5t204.5 -85.5q330 0 402 502q8 55 8 131q0 70 -8 105q-119 98 -264 98q-193 0 -304.5 -155.5t-111.5 -362.5z" />
<glyph unicode="&#xf1;" horiz-adv-x="1165" d="M84 23l109 770q20 135 34 270q2 18 58 18h14q31 0 42 -4t9 -14l-12 -131q141 170 377 170q184 0 272 -107q84 -106 49 -344l-88 -628q-2 -23 -61 -23h-17q-35 0 -45 5t-8 18l76 536q20 131 19 210t-35 124q-57 78 -213 78q-154 0 -265 -101q-59 -63 -80 -147 q-18 -74 -47 -297l-57 -403q-2 -23 -61 -23h-17q-35 0 -45 5.5t-8 17.5zM418 1358q82 90 184 90q57 0 133 -39t119 -39q57 0 125 62q12 8 29 -17l10 -14q16 -25 2 -39q-82 -90 -184 -90q-61 0 -135 39t-117 39q-61 0 -121 -58q-12 -12 -35 17l-8 12q-14 25 -2 37z" />
<glyph unicode="&#xf2;" horiz-adv-x="1134" d="M82 406q0 129 37 249.5t106.5 222t184 163t258.5 61.5q186 0 280 -101q104 -111 105 -325q0 -174 -61.5 -328.5t-198 -261t-324.5 -106.5t-283 100q-104 111 -104 326zM223 416q0 -315 269 -316q199 0 309 174.5t110 391.5q0 315 -266 315q-137 0 -236.5 -90t-142.5 -215 t-43 -260zM535 1456q-8 16 16 19q12 2 33 2h30q57 0 66 -21l100 -242q4 -10 -18 -12q-10 -2 -25 -2h-8q-43 0 -51 12z" />
<glyph unicode="&#xf3;" horiz-adv-x="1134" d="M82 406q0 129 37 249.5t106.5 222t184 163t258.5 61.5q186 0 280 -101q104 -111 105 -325q0 -174 -61.5 -328.5t-198 -261t-324.5 -106.5t-283 100q-104 111 -104 326zM223 416q0 -315 269 -316q199 0 309 174.5t110 391.5q0 315 -266 315q-137 0 -236.5 -90t-142.5 -215 t-43 -260zM563 1210q0 2 2 7l168 239q14 20 74 21h22q53 0 54 -11q2 -4 -4 -10l-213 -244q-12 -12 -56 -12h-8q-41 0 -39 10z" />
<glyph unicode="&#xf4;" horiz-adv-x="1134" d="M82 406q0 129 37 249.5t106.5 222t184 163t258.5 61.5q186 0 280 -101q104 -111 105 -325q0 -174 -61.5 -328.5t-198 -261t-324.5 -106.5t-283 100q-104 111 -104 326zM223 416q0 -315 269 -316q199 0 309 174.5t110 391.5q0 315 -266 315q-137 0 -236.5 -90t-142.5 -215 t-43 -260zM393 1268l217 205q23 20 72 20h53q45 0 64 -20l159 -205q8 -10 -12 -31l-12 -12q-25 -25 -33 -15l-199 199l-268 -199q-12 -10 -28 15l-9 12q-14 21 -4 31z" />
<glyph unicode="&#xf5;" horiz-adv-x="1134" d="M82 406q0 129 37 249.5t106.5 222t184 163t258.5 61.5q186 0 280 -101q104 -111 105 -325q0 -174 -61.5 -328.5t-198 -261t-324.5 -106.5t-283 100q-104 111 -104 326zM223 416q0 -315 269 -316q199 0 309 174.5t110 391.5q0 315 -266 315q-137 0 -236.5 -90t-142.5 -215 t-43 -260zM410 1358q82 90 184 90q57 0 133 -39t119 -39q57 0 125 62q12 8 28 -17l11 -14q16 -25 2 -39q-82 -90 -185 -90q-61 0 -135 39t-117 39q-61 0 -120 -58q-12 -12 -35 17l-8 12q-14 25 -2 37z" />
<glyph unicode="&#xf6;" horiz-adv-x="1134" d="M82 406q0 129 37 249.5t106.5 222t184 163t258.5 61.5q186 0 280 -101q104 -111 105 -325q0 -174 -61.5 -328.5t-198 -261t-324.5 -106.5t-283 100q-104 111 -104 326zM223 416q0 -315 269 -316q199 0 309 174.5t110 391.5q0 315 -266 315q-137 0 -236.5 -90t-142.5 -215 t-43 -260zM399 1329q0 41 32 75t77 34q37 0 60.5 -26t23.5 -62q0 -43 -31 -75t-80 -32q-35 0 -58.5 25.5t-23.5 60.5zM805 1329q0 41 31.5 75t76.5 34q37 0 60.5 -26t23.5 -62q0 -43 -31.5 -75t-78.5 -32q-35 0 -58.5 25.5t-23.5 60.5z" />
<glyph unicode="&#xf7;" d="M96 743l2 11q8 41 21 41h954q12 0 14.5 -8.5t-4.5 -34.5l-2 -11q-6 -29 -10 -36t-14 -7h-951q-20 0 -10 45zM451 317q0 45 33.5 81t80.5 36q35 0 60.5 -25.5t25.5 -64.5q0 -47 -33.5 -82t-80.5 -35q-35 0 -60.5 25.5t-25.5 64.5zM567 1151q0 45 34 81t81 36 q35 0 60.5 -25.5t25.5 -64.5q0 -47 -34 -82t-81 -35q-35 0 -60.5 25.5t-25.5 64.5z" />
<glyph unicode="&#xf8;" horiz-adv-x="1134" d="M46 -3q-3 9 9 21l95 111q-68 113 -68 277q0 129 37 249.5t106.5 222t184 163t258.5 61.5q150 0 243 -70l99 117q12 12 21 9t36 -23l6 -7q23 -20 27 -29t-8 -24l-107 -125q68 -113 68 -274q0 -174 -61.5 -328.5t-198 -261t-324.5 -106.5q-156 0 -246 67l-84 -98 q-14 -18 -55 12l-10 8q-25 19 -28 28zM223 416q0 -94 27 -166l569 674q-68 57 -174 57q-137 0 -236.5 -90t-142.5 -215t-43 -260zM315 156q66 -55 177 -56q199 0 309 174.5t110 391.5q0 96 -26 163z" />
<glyph unicode="&#xf9;" horiz-adv-x="1159" d="M127 430l88 631q2 20 57 20h17q35 0 47 -5t10 -15l-76 -541q-23 -156 -22.5 -214t28.5 -120q59 -80 211 -80q147 0 246 87q98 92 135 358l72 510q2 20 59 20h15q35 0 47 -5t10 -15l-100 -711q-29 -217 -39 -325q-2 -16 -11.5 -20.5t-41.5 -4.5h-17q-33 0 -41 3t-6 17 l8 142q-127 -182 -368 -182q-203 0 -283 104q-80 100 -45 346zM528 1456q-8 16 17 19q12 2 33 2h30q57 0 66 -21l100 -242q4 -10 -18 -12q-10 -2 -25 -2h-8q-43 0 -51 12z" />
<glyph unicode="&#xfa;" horiz-adv-x="1159" d="M127 430l88 631q2 20 57 20h17q35 0 47 -5t10 -15l-76 -541q-23 -156 -22.5 -214t28.5 -120q59 -80 211 -80q147 0 246 87q98 92 135 358l72 510q2 20 59 20h15q35 0 47 -5t10 -15l-100 -711q-29 -217 -39 -325q-2 -16 -11.5 -20.5t-41.5 -4.5h-17q-33 0 -41 3t-6 17 l8 142q-127 -182 -368 -182q-203 0 -283 104q-80 100 -45 346zM553 1210q0 2 2 7l168 239q14 20 74 21h22q53 0 53 -11q2 -4 -4 -10l-213 -244q-12 -12 -55 -12h-8q-41 0 -39 10z" />
<glyph unicode="&#xfb;" horiz-adv-x="1159" d="M127 430l88 631q2 20 57 20h17q35 0 47 -5t10 -15l-76 -541q-23 -156 -22.5 -214t28.5 -120q59 -80 211 -80q147 0 246 87q98 92 135 358l72 510q2 20 59 20h15q35 0 47 -5t10 -15l-100 -711q-29 -217 -39 -325q-2 -16 -11.5 -20.5t-41.5 -4.5h-17q-33 0 -41 3t-6 17 l8 142q-127 -182 -368 -182q-203 0 -283 104q-80 100 -45 346zM393 1268l217 205q23 20 72 20h53q45 0 64 -20l159 -205q8 -10 -12 -31l-12 -12q-25 -25 -33 -15l-199 199l-268 -199q-12 -10 -28 15l-9 12q-14 21 -4 31z" />
<glyph unicode="&#xfc;" horiz-adv-x="1159" d="M127 430l88 631q2 20 57 20h17q35 0 47 -5t10 -15l-76 -541q-23 -156 -22.5 -214t28.5 -120q59 -80 211 -80q147 0 246 87q98 92 135 358l72 510q2 20 59 20h15q35 0 47 -5t10 -15l-100 -711q-29 -217 -39 -325q-2 -16 -11.5 -20.5t-41.5 -4.5h-17q-33 0 -41 3t-6 17 l8 142q-127 -182 -368 -182q-203 0 -283 104q-80 100 -45 346zM381 1329q0 41 31.5 75t76.5 34q37 0 60.5 -26t23.5 -62q0 -43 -30.5 -75t-79.5 -32q-35 0 -58.5 25.5t-23.5 60.5zM786 1329q0 41 32 75t77 34q37 0 60.5 -26t23.5 -62q0 -43 -32 -75t-79 -32 q-35 0 -58.5 25.5t-23.5 60.5z" />
<glyph unicode="&#xfd;" horiz-adv-x="1021" d="M-133 -473q-18 8 6 51l10 19q25 43 39 36q43 -16 96 -16q123 0 213.5 82t180.5 272l-262 1086q-2 10 1 14t17 7t47 3h14q66 0 70 -20l117 -520q41 -188 82 -424q96 209 192 409l258 535q10 20 68 20h10q55 0 55 -12q0 -4 -2 -8l-538 -1104q-113 -229 -222 -334 q-129 -123 -311 -123q-78 0 -141 27zM506 1210q0 2 2 7l168 239q14 20 74 21h22q53 0 53 -11q2 -4 -4 -10l-213 -244q-12 -12 -55 -12h-8q-41 0 -39 10z" />
<glyph unicode="&#xfe;" horiz-adv-x="1126" d="M14 -459l285 2018q2 18 59 18h17q33 0 45 -4t10 -19l-86 -593q123 141 330 141q174 0 272 -103.5t98 -306.5q0 -133 -33.5 -257t-99 -227.5t-175 -165.5t-249.5 -62q-172 0 -266 98l-76 -537q-2 -18 -63 -18h-16q-33 0 -43.5 4t-8.5 14zM240 209q41 -47 111.5 -78 t148.5 -31q135 0 229 92.5t134 219.5t40 272q0 295 -260 295q-156 0 -244 -92q-39 -43 -64.5 -112.5t-47.5 -231.5z" />
<glyph unicode="&#xff;" horiz-adv-x="1021" d="M-133 -473q-18 8 6 51l10 19q25 43 39 36q43 -16 96 -16q123 0 213.5 82t180.5 272l-262 1086q-2 10 1 14t17 7t47 3h14q66 0 70 -20l117 -520q41 -188 82 -424q96 209 192 409l258 535q10 20 68 20h10q55 0 55 -12q0 -4 -2 -8l-538 -1104q-113 -229 -222 -334 q-129 -123 -311 -123q-78 0 -141 27zM342 1329q0 41 32 75t77 34q37 0 60.5 -26t23.5 -62q0 -43 -31 -75t-80 -32q-35 0 -58.5 25.5t-23.5 60.5zM748 1329q0 41 31.5 75t76.5 34q37 0 60.5 -26t23.5 -62q0 -43 -31.5 -75t-79.5 -32q-35 0 -58 25.5t-23 60.5z" />
<glyph unicode="&#x152;" horiz-adv-x="1886" d="M90 537q0 135 27.5 267t88 258t147.5 221t217 153.5t286 58.5q94 0 234 -20h780q12 0 15 -9.5t-3 -44.5l-2 -12q-6 -33 -11 -42t-16 -9h-634l-78 -553h538q23 0 13 -53l-2 -13q-6 -33 -11.5 -42t-15.5 -9h-539l-80 -571h644q23 0 12 -54l-2 -12q-6 -33 -11.5 -42 t-15.5 -9h-782q-172 -20 -281 -20q-244 0 -381 141.5t-137 415.5zM238 539q0 -444 395 -445q102 0 272 19l174 1241q-143 25 -241 24q-154 0 -274 -76.5t-188.5 -201.5t-103 -268t-34.5 -293z" />
<glyph unicode="&#x153;" horiz-adv-x="1824" d="M82 403q0 125 35 245t101.5 223.5t178 167t250.5 63.5q248 0 338 -228q147 227 414 228q117 0 197.5 -58.5t117.5 -162.5q31 -92 31 -207q0 -68 -8 -125q-6 -33 -13.5 -42t-23.5 -9h-701q-4 -57 -4 -80q0 -152 64 -230q72 -84 221 -84q154 0 283 62q16 8 24 2t17 -35 l4 -20q8 -45 -6 -54q-160 -80 -355 -79q-143 0 -240.5 68.5t-121.5 172.5q-162 -242 -424 -241q-186 0 -282.5 114t-96.5 309zM223 406q0 -305 252 -306q133 0 227.5 91.5t134.5 216t40 262.5q0 311 -254 311q-131 0 -225.5 -93t-134.5 -219t-40 -263zM1016 604h592 q4 49 4 74q0 131 -58.5 215t-177.5 84q-135 0 -228 -97.5t-132 -275.5z" />
<glyph unicode="&#x178;" horiz-adv-x="1050" d="M143 1450q-2 8 0 13t17.5 8.5t44.5 3.5h16q66 0 72 -23l242 -756l456 760q12 18 74 19h18q53 0 56 -15q0 -4 -4 -10l-555 -881l-78 -551q-2 -18 -66 -18h-16q-35 0 -46.5 4t-8.5 14l77 551zM365 1722q0 41 31.5 75t76.5 34q37 0 60.5 -25.5t23.5 -62.5q0 -43 -30.5 -75 t-80.5 -32q-35 0 -58 25.5t-23 60.5zM770 1722q0 41 32 75t77 34q37 0 60.5 -25.5t23.5 -62.5q0 -43 -32 -75t-79 -32q-35 0 -58.5 25.5t-23.5 60.5z" />
<glyph unicode="&#x2c6;" horiz-adv-x="708" d="M117 1268l217 205q23 20 72 20h53q45 0 63 -20l160 -205q8 -10 -12 -31l-13 -12q-23 -25 -32 -15l-199 199l-268 -199q-12 -10 -29 15l-8 12q-14 21 -4 31z" />
<glyph unicode="&#x2dc;" horiz-adv-x="708" d="M111 1358q82 90 184 90q57 0 133 -39t119 -39q57 0 125 62q12 8 28 -17l11 -14q16 -25 2 -39q-82 -90 -185 -90q-61 0 -135 39t-117 39q-61 0 -120 -58q-12 -12 -35 17l-8 12q-14 25 -2 37z" />
<glyph unicode="&#x2000;" horiz-adv-x="943" />
<glyph unicode="&#x2001;" horiz-adv-x="1886" />
<glyph unicode="&#x2002;" horiz-adv-x="943" />
<glyph unicode="&#x2003;" horiz-adv-x="1886" />
<glyph unicode="&#x2004;" horiz-adv-x="628" />
<glyph unicode="&#x2005;" horiz-adv-x="471" />
<glyph unicode="&#x2006;" horiz-adv-x="314" />
<glyph unicode="&#x2007;" horiz-adv-x="314" />
<glyph unicode="&#x2008;" horiz-adv-x="235" />
<glyph unicode="&#x2009;" horiz-adv-x="377" />
<glyph unicode="&#x200a;" horiz-adv-x="104" />
<glyph unicode="&#x2010;" horiz-adv-x="765" d="M111 621l2 10q6 31 9 38t13 7h524q10 0 12.5 -7t-3.5 -40l-2 -11q-8 -47 -23 -47h-524q-18 1 -8 50z" />
<glyph unicode="&#x2011;" horiz-adv-x="765" d="M111 621l2 10q6 31 9 38t13 7h524q10 0 12.5 -7t-3.5 -40l-2 -11q-8 -47 -23 -47h-524q-18 1 -8 50z" />
<glyph unicode="&#x2012;" horiz-adv-x="765" d="M111 621l2 10q6 31 9 38t13 7h524q10 0 12.5 -7t-3.5 -40l-2 -11q-8 -47 -23 -47h-524q-18 1 -8 50z" />
<glyph unicode="&#x2013;" horiz-adv-x="1003" d="M90 580l2 10q6 29 10 35t15 6h790q12 0 14.5 -8.5t-3.5 -34.5l-3 -10q-6 -29 -11 -36t-17 -7h-787q-20 0 -10 45z" />
<glyph unicode="&#x2014;" horiz-adv-x="2007" d="M90 580l2 10q6 29 10 35t15 6h1796q12 0 14 -8.5t-4 -34.5l-2 -10q-6 -29 -11 -36t-18 -7h-1792q-20 0 -10 45z" />
<glyph unicode="&#x2018;" horiz-adv-x="464" d="M123 1034q0 117 80 240t205 217q10 8 28 -14l6 -9q14 -23 2 -32q-164 -143 -163 -250q0 -37 34.5 -84t34.5 -82q0 -47 -31.5 -78t-82.5 -31q-53 0 -83 32t-30 91z" />
<glyph unicode="&#x2019;" horiz-adv-x="464" d="M113 971q164 143 163 250q0 37 -34.5 84t-34.5 81q0 47 31.5 78t83.5 31q53 0 82.5 -31.5t29.5 -91.5q0 -117 -80 -239.5t-204 -217.5q-10 -8 -29 15l-6 8q-14 23 -2 33z" />
<glyph unicode="&#x201a;" horiz-adv-x="464" d="M14 -307q164 143 164 250q0 37 -34.5 84t-34.5 82q0 47 31.5 77.5t82.5 30.5q53 0 83 -31.5t30 -91.5q0 -117 -80 -239.5t-205 -216.5q-10 -8 -28 14l-7 8q-14 23 -2 33z" />
<glyph unicode="&#x201c;" horiz-adv-x="876" d="M123 1034q0 117 80 240t205 217q10 8 28 -14l6 -9q14 -23 2 -32q-164 -143 -163 -250q0 -37 34.5 -84t34.5 -82q0 -47 -31.5 -78t-82.5 -31q-53 0 -83 32t-30 91zM535 1034q0 117 79.5 240t204.5 217q10 8 29 -14l6 -9q14 -23 2 -32q-164 -143 -164 -250q0 -37 35 -84 t35 -82q0 -47 -32 -78t-83 -31q-53 0 -82.5 32t-29.5 91z" />
<glyph unicode="&#x201d;" horiz-adv-x="876" d="M113 971q164 143 163 250q0 37 -34.5 84t-34.5 81q0 47 31.5 78t83.5 31q53 0 82.5 -31.5t29.5 -91.5q0 -117 -80 -239.5t-204 -217.5q-10 -8 -29 15l-6 8q-14 23 -2 33zM524 971q164 143 164 250q0 37 -35 84t-35 81q0 47 32 78t83 31q53 0 83 -31.5t30 -91.5 q0 -117 -80 -239.5t-205 -217.5q-10 -8 -29 15l-6 8q-14 23 -2 33z" />
<glyph unicode="&#x201e;" horiz-adv-x="876" d="M14 -307q164 143 164 250q0 37 -34.5 84t-34.5 82q0 47 31.5 77.5t82.5 30.5q53 0 83 -31.5t30 -91.5q0 -117 -80 -239.5t-205 -216.5q-10 -8 -28 14l-7 8q-14 23 -2 33zM426 -307q164 143 164 250q0 37 -35 84t-35 82q0 47 32 77.5t83 30.5q53 0 83 -31.5t30 -91.5 q0 -117 -80 -239.5t-205 -216.5q-10 -8 -29 14l-6 8q-14 23 -2 33z" />
<glyph unicode="&#x2022;" horiz-adv-x="681" d="M119 692q0 104 78.5 186.5t189.5 82.5q88 0 144.5 -60.5t56.5 -148.5q0 -102 -80 -183.5t-189 -81.5q-86 0 -143 59.5t-57 145.5z" />
<glyph unicode="&#x2026;" horiz-adv-x="1452" d="M96 82q0 53 39 94t92 41q41 0 71 -29.5t30 -74.5q0 -53 -39 -93t-94 -40q-41 0 -70 29.5t-29 72.5zM580 82q0 53 38.5 94t92.5 41q41 0 70.5 -29.5t29.5 -74.5q0 -53 -39 -93t-94 -40q-41 0 -69.5 29.5t-28.5 72.5zM1063 82q0 53 39 94t92 41q41 0 70.5 -29.5t29.5 -74.5 q0 -53 -38.5 -93t-94.5 -40q-41 0 -69.5 29.5t-28.5 72.5z" />
<glyph unicode="&#x202f;" horiz-adv-x="377" />
<glyph unicode="&#x2039;" horiz-adv-x="620" d="M150 621l2 12q4 18 16 35l324 397q16 18 45 0l14 -8q29 -18 14 -37l-289 -397l179 -396q6 -18 -27 -37l-14 -8q-35 -18 -45 0l-213 398q-10 21 -6 41z" />
<glyph unicode="&#x203a;" horiz-adv-x="620" d="M68 227l288 398l-178 395q-6 18 27 37l14 8q35 18 45 0l213 -397q10 -20 6 -41l-2 -13q-4 -18 -16 -34l-324 -398q-16 -18 -45 0l-14 8q-28 19 -14 37z" />
<glyph unicode="&#x205f;" horiz-adv-x="471" />
<glyph unicode="&#x20ac;" d="M31 580l2 10q8 41 20 41h156q6 88 33 215h-129q-20 0 -11 45l2 10q8 41 21 41h141q82 268 247 410.5t376 142.5q172 0 305 -88q14 -10 -8 -51l-12 -23q-20 -41 -41 -28q-133 70 -250 69q-340 0 -471 -432h477q20 0 10 -45l-2 -10q-8 -41 -20 -41h-492q-27 -104 -33 -215 h465q20 0 10 -45l-2 -11q-8 -41 -20 -40h-453q10 -434 348 -435q135 0 273 60q14 6 19 1t14 -34l6 -21q10 -41 -11 -51q-158 -76 -321 -75q-227 0 -348 141q-123 145 -127 414h-164q-20 0 -10 45z" />
<glyph unicode="&#x2122;" horiz-adv-x="1789" d="M152 1448l2 12q4 35 16 35h612q10 0 6 -35l-2 -12q-6 -37 -16 -37h-256l-102 -731q-2 -12 -43 -12h-25q-23 0 -30 2t-5 10l103 731h-254q-10 0 -6 37zM766 682l168 793q4 20 53 20h19q49 0 53 -16l164 -566l309 566q10 16 57 16h25q35 0 45 -4t8 -16l-61 -795 q0 -12 -41 -12h-23q-35 0 -35 12l54 690l-299 -549q-8 -12 -45 -12h-23q-39 0 -43 12l-154 529l-133 -670q-2 -12 -43 -12h-22q-20 0 -27.5 3t-5.5 11z" />
<glyph unicode="&#x25fc;" horiz-adv-x="1080" d="M0 0v1080h1080v-1080h-1080z" />
<glyph unicode="&#xfb01;" horiz-adv-x="1097" d="M68 -457l196 1424h-141q-20 0 -12 51l2 14q6 49 26 49h142l10 84q49 412 444 412q162 0 303 -74q16 -8 -10 -53l-6 -10q-16 -29 -22.5 -35t-18.5 0q-121 61 -254 61q-139 0 -212 -67.5t-95 -237.5l-10 -80h247q10 0 12.5 -8t-1.5 -43l-2 -14q-8 -49 -25 -49h-248 l-196 -1424q-2 -20 -60 -20h-16q-33 0 -44 5t-9 15zM721 20l147 1043q2 18 58 18h16q33 0 45 -4t10 -14l-147 -1043q-2 -20 -57 -20h-17q-35 0 -46 5t-9 15z" />
<glyph unicode="&#xfb02;" horiz-adv-x="1179" d="M68 -457l198 1424h-141q-18 0 -10 51l2 14q8 49 24 49h142l12 84q61 436 461 437q143 0 268 -60q35 -18 33 -51q-14 -223 -58 -549l-98 -713q-6 -37 -6 -63q0 -61 55 -62q20 0 45 5q8 2 11.5 -5.5t3.5 -31.5v-15q0 -37 -19 -43q-43 -14 -90 -14q-139 0 -139 135 q0 49 12 135l103 719q39 289 53 463q-86 41 -191 41q-154 0 -223.5 -85t-91.5 -247l-12 -80h247q20 0 13 -51l-2 -14q-8 -49 -27 -49h-248l-198 -1424q-2 -20 -58 -20h-16q-35 0 -46 5t-9 15z" />
<glyph unicode="&#xfb03;" horiz-adv-x="1783" d="M68 -457l196 1424h-141q-16 0 -8 53l2 14q4 33 8 40t14 7h142l12 84q33 221 132 329t284 108q94 0 180 -35q9 -4 9 -16q0 -14 -11 -38l-6 -14q-14 -33 -20.5 -39t-20.5 -2q-70 25 -142 25q-131 0 -191.5 -78t-82.5 -244l-12 -80h245q12 0 14.5 -8t-1.5 -43l-2 -14 q-6 -49 -27 -49h-246l-196 -1424q-2 -20 -62 -20h-16q-33 0 -44 5t-9 15zM732 -457l196 1424h-141q-16 0 -8 53l2 14q4 33 8 40t14 7h142l12 84q33 221 132 329t284 108q94 0 180 -35q9 -4 9 -16q0 -14 -11 -38l-6 -14q-14 -33 -20.5 -39t-20.5 -2q-70 25 -142 25 q-131 0 -191.5 -78t-82.5 -244l-12 -80h245q12 0 14.5 -8t-1.5 -43l-2 -14q-6 -49 -27 -49h-246l-196 -1424q-2 -20 -62 -20h-16q-33 0 -44 5t-9 15zM1407 20l147 1043q2 18 58 18h16q35 0 46 -4t9 -14l-147 -1043q-2 -20 -57 -20h-17q-35 0 -46 5t-9 15zM1567 1442 q0 45 36.5 84t85.5 39q37 0 64 -29t27 -70q0 -47 -36 -83.5t-85 -36.5q-39 0 -65.5 27.5t-26.5 68.5z" />
<glyph unicode="&#xfb04;" horiz-adv-x="1818" d="M68 -457l196 1424h-141q-16 0 -8 53l2 14q4 33 8 40t14 7h142l12 84q33 221 132 329t284 108q94 0 180 -35q9 -4 9 -16q0 -14 -11 -38l-6 -14q-14 -33 -20.5 -39t-20.5 -2q-70 25 -142 25q-131 0 -191.5 -78t-82.5 -244l-12 -80h245q12 0 14.5 -8t-1.5 -43l-2 -14 q-6 -49 -27 -49h-246l-196 -1424q-2 -20 -62 -20h-16q-33 0 -44 5t-9 15zM732 -457l196 1424h-141q-16 0 -8 53l2 14q4 33 8 40t14 7h142l12 84q33 221 132 329t284 108q94 0 180 -35q9 -4 9 -16q0 -14 -11 -38l-6 -14q-14 -33 -20.5 -39t-20.5 -2q-70 25 -142 25 q-131 0 -191.5 -78t-82.5 -244l-12 -80h245q12 0 14.5 -8t-1.5 -43l-2 -14q-6 -49 -27 -49h-246l-196 -1424q-2 -20 -62 -20h-16q-33 0 -44 5t-9 15zM1401 135q0 49 12 135l102 719q45 330 68 549q2 18 57 18h17q35 0 47 -4q11 -4 10 -11q0 -25 -3 -62.5t-11 -99.5 t-15.5 -113.5t-22 -153t-24.5 -170.5l-98 -713q-6 -37 -6 -63q0 -61 55 -62q20 0 45 5q8 2 11.5 -5.5t3.5 -31.5v-15q0 -37 -19 -43q-43 -14 -90 -14q-139 0 -139 135z" />
</font>
</defs>
</svg>
